<?xml version="1.0" encoding="utf-8"?>
<!-- Generator: Adobe Illustrator 16.0.0, SVG Export Plug-In . SVG Version: 6.00 Build 0)  -->
<!DOCTYPE svg PUBLIC "-//W3C//DTD SVG 1.1//EN" "http://www.w3.org/Graphics/SVG/1.1/DTD/svg11.dtd">
<svg version="1.1" id="Layer_1" xmlns="http://www.w3.org/2000/svg" xmlns:xlink="http://www.w3.org/1999/xlink" x="0px" y="0px"
	 width="25px" height="25px" viewBox="0 0 25 25" enable-background="new 0 0 25 25" xml:space="preserve">
<circle fill="#FFFFFF" cx="12.5" cy="12.5" r="12.5"/>
<g>
	<g>
		<defs>
			<circle id="SVGID_1_" cx="12.5" cy="12.5" r="11"/>
		</defs>
		<clipPath id="SVGID_2_">
			<use xlink:href="#SVGID_1_"  overflow="visible"/>
		</clipPath>
		<rect x="-7" y="-7" clip-path="url(#SVGID_2_)" width="39" height="39"/>
		<g clip-path="url(#SVGID_2_)">
			<g>
				<g>
					<path fill="#FFFFFF" d="M5.609,8.819c0.206,0.187,0.476,0.289,0.758,0.289c0.181,0,0.359-0.043,0.519-0.125
						c0.058-0.03,0.113-0.066,0.166-0.106L7.374,8.63l0.86,0.804c0.022,0.021,0.052,0.032,0.081,0.032
						c0.004,0,0.008-0.001,0.012-0.001c0.034-0.003,0.065-0.021,0.085-0.049C8.63,9.118,8.886,8.844,9.175,8.601
						c0.026-0.022,0.042-0.055,0.043-0.089S9.205,8.444,9.18,8.422L8.299,7.6l0.205-0.334c0.285-0.464,0.198-1.064-0.206-1.43
						C8.091,5.649,7.821,5.547,7.539,5.547c-0.181,0-0.36,0.044-0.518,0.126c-0.12,0.062-0.228,0.145-0.318,0.246
						C6.556,6.082,6.461,6.283,6.428,6.5L6.38,6.811l-0.305,0.08c-0.212,0.056-0.402,0.172-0.55,0.335
						C5.324,7.449,5.222,7.738,5.237,8.04C5.253,8.341,5.385,8.617,5.609,8.819z"/>
					<path fill="#FFFFFF" d="M9.462,16.016v-0.874c0-0.033-0.014-0.064-0.037-0.087s-0.056-0.034-0.088-0.033
						c-0.089,0.004-0.177-0.01-0.261-0.042c-0.043-0.017-0.091-0.007-0.124,0.024l-1.463,1.365l-0.322-0.246
						C7.114,16.082,7.058,16.047,7,16.017c-0.158-0.082-0.338-0.126-0.518-0.126c-0.282,0-0.552,0.103-0.759,0.289
						c-0.224,0.202-0.355,0.479-0.371,0.78c-0.017,0.301,0.087,0.591,0.289,0.815c0.146,0.163,0.336,0.278,0.549,0.333l0.305,0.08
						L6.543,18.5c0.033,0.217,0.128,0.418,0.275,0.581c0.091,0.102,0.198,0.184,0.318,0.246c0.158,0.082,0.337,0.126,0.518,0.126
						c0.282,0,0.551-0.103,0.758-0.289c0.225-0.202,0.356-0.479,0.372-0.78c0.013-0.23-0.045-0.454-0.165-0.648l-0.206-0.334
						l1.052-0.982c0.032-0.029,0.045-0.075,0.034-0.117C9.475,16.207,9.462,16.111,9.462,16.016z"/>
					<path fill="#FFFFFF" d="M19.474,7.226c-0.147-0.163-0.337-0.279-0.55-0.335l-0.304-0.08L18.572,6.5
						c-0.033-0.217-0.129-0.418-0.275-0.581c-0.092-0.102-0.198-0.185-0.318-0.246c-0.158-0.083-0.337-0.126-0.518-0.126
						c-0.282,0-0.552,0.103-0.759,0.289c-0.404,0.365-0.491,0.966-0.207,1.43L16.7,7.6l-0.88,0.822
						c-0.025,0.023-0.039,0.056-0.038,0.09s0.016,0.066,0.042,0.089c0.289,0.243,0.546,0.518,0.763,0.815
						c0.021,0.028,0.052,0.046,0.086,0.049c0.004,0,0.007,0.001,0.011,0.001c0.03,0,0.06-0.012,0.082-0.032l0.86-0.804l0.321,0.247
						c0.053,0.04,0.109,0.076,0.167,0.106c0.158,0.082,0.337,0.125,0.518,0.125c0.282,0,0.552-0.103,0.759-0.289
						c0.225-0.202,0.356-0.479,0.372-0.779C19.778,7.738,19.676,7.449,19.474,7.226z"/>
					<path fill="#FFFFFF" d="M19.275,16.18c-0.206-0.187-0.476-0.289-0.758-0.289c-0.181,0-0.359,0.044-0.519,0.126
						c-0.058,0.03-0.113,0.065-0.167,0.106l-0.321,0.246l-1.463-1.365c-0.033-0.031-0.082-0.041-0.125-0.024
						c-0.083,0.032-0.171,0.047-0.26,0.042c-0.033-0.001-0.064,0.011-0.088,0.033s-0.037,0.054-0.037,0.087v0.874
						c0,0.096-0.013,0.191-0.037,0.286c-0.012,0.042,0.002,0.088,0.034,0.118l1.051,0.981l-0.206,0.334
						c-0.119,0.193-0.177,0.418-0.164,0.648c0.016,0.302,0.147,0.578,0.372,0.78c0.206,0.187,0.476,0.289,0.758,0.289
						c0.181,0,0.359-0.044,0.518-0.126c0.12-0.063,0.227-0.145,0.317-0.246c0.147-0.163,0.243-0.364,0.276-0.581l0.048-0.312
						l0.305-0.08c0.212-0.055,0.402-0.171,0.549-0.333c0.202-0.225,0.305-0.515,0.289-0.815S19.5,16.382,19.275,16.18z"/>
					<path fill="#FFFFFF" d="M15.613,14.542c0.051,0.008,0.103-0.01,0.138-0.046c0.717-0.726,1.11-1.66,1.11-2.632
						c0-2.168-1.948-3.938-4.361-3.98c-2.413,0.043-4.362,1.813-4.362,3.98c0,0.972,0.395,1.906,1.11,2.632
						c0.036,0.036,0.087,0.054,0.138,0.046c0.051-0.007,0.095-0.038,0.119-0.083l0.392-0.731c0.012-0.021,0.037-0.033,0.061-0.027
						c0.024,0.006,0.041,0.027,0.041,0.052v2.264c0,0.253,0.146,0.489,0.374,0.602c0.438,0.217,1.157,0.474,2.128,0.498
						c0.97-0.024,1.688-0.281,2.128-0.498c0.227-0.112,0.373-0.349,0.373-0.602v-2.264c0-0.024,0.018-0.046,0.041-0.052
						c0.024-0.006,0.049,0.006,0.061,0.027l0.392,0.731C15.519,14.504,15.563,14.535,15.613,14.542z M11.014,12.896
						c-0.612,0-1.11-0.593-1.11-1.32c0-0.167,0.137-0.303,0.304-0.303h1.612c0.167,0,0.304,0.137,0.304,0.305
						C12.123,12.305,11.625,12.896,11.014,12.896z M13.258,14.369l-0.311,0.268c-0.016,0.015-0.04,0.018-0.06,0.007l-0.334-0.175
						c-0.044-0.022-0.063-0.022-0.107,0l-0.334,0.175c-0.02,0.011-0.044,0.008-0.061-0.007l-0.31-0.268
						c-0.022-0.02-0.025-0.053-0.006-0.075l0.612-0.711c0.092-0.107,0.211-0.107,0.303,0l0.612,0.711
						C13.283,14.316,13.28,14.35,13.258,14.369z M13.986,12.896c-0.612,0-1.109-0.592-1.109-1.318c0-0.168,0.137-0.305,0.304-0.305
						h1.611c0.168,0,0.304,0.136,0.304,0.303C15.096,12.304,14.598,12.896,13.986,12.896z"/>
				</g>
			</g>
			<g>
			</g>
			<g>
			</g>
			<g>
			</g>
			<g>
			</g>
			<g>
			</g>
			<g>
			</g>
			<g>
			</g>
			<g>
			</g>
			<g>
			</g>
			<g>
			</g>
			<g>
			</g>
			<g>
			</g>
			<g>
			</g>
			<g>
			</g>
			<g>
			</g>
		</g>
	</g>
</g>
</svg>
