<?xml version="1.0" encoding="utf-8"?>
<!-- Generator: Adobe Illustrator 16.0.0, SVG Export Plug-In . SVG Version: 6.00 Build 0)  -->
<!DOCTYPE svg PUBLIC "-//W3C//DTD SVG 1.1//EN" "http://www.w3.org/Graphics/SVG/1.1/DTD/svg11.dtd">
<svg version="1.1" id="Layer_1" xmlns="http://www.w3.org/2000/svg" xmlns:xlink="http://www.w3.org/1999/xlink" x="0px" y="0px"
	 width="96px" height="96px" viewBox="0 0 96 96" enable-background="new 0 0 96 96" xml:space="preserve">
<g>
	<path fill="#FFFFFF" d="M20.242,60.717H5.25H3.959H0.375v6.166h3.584H5.25h11.658C17.316,64.465,18.52,62.318,20.242,60.717z"/>
	<path fill="#FFFFFF" d="M27.662,59.784c-4.926,0-8.918,3.992-8.918,8.917c0,4.924,3.992,8.916,8.918,8.916
		c4.924,0,8.916-3.992,8.916-8.916C36.578,63.776,32.586,59.784,27.662,59.784z M27.662,74.617c-3.264,0-5.918-2.654-5.918-5.916
		c0-3.263,2.654-5.917,5.918-5.917c3.262,0,5.916,2.654,5.916,5.917C33.578,71.963,30.924,74.617,27.662,74.617z"/>
	<path fill="#FFFFFF" d="M72.496,59.784c-4.926,0-8.918,3.992-8.918,8.917c0,4.924,3.992,8.916,8.918,8.916
		c4.924,0,8.916-3.992,8.916-8.916C81.412,63.776,77.42,59.784,72.496,59.784z M72.496,74.617c-3.264,0-5.918-2.654-5.918-5.916
		c0-3.263,2.654-5.917,5.918-5.917c3.262,0,5.916,2.654,5.916,5.917C78.412,71.963,75.758,74.617,72.496,74.617z"/>
	<path fill="#FFFFFF" d="M95.613,63.24v-2.857h-4.779h-0.041V43.049c0-1.649-0.762-4.115-1.691-5.478L78.15,21.527
		c-0.93-1.363-3.041-2.478-4.691-2.478H59.793c-1.65,0-3,1.35-3,3v35.667c0,1.649-1.35,3-3,3H35.08
		c1.723,1.602,2.926,3.748,3.334,6.166h23.328c0.871-5.155,5.355-9.099,10.754-9.099s9.881,3.943,10.752,9.099h6.564h2.813h2.988
		v-2.885c0.002-0.039,0.012-0.076,0.012-0.115v-0.5C95.625,63.334,95.615,63.288,95.613,63.24z M61.527,35.542V23.056h11.77
		c0.568,0,1.584,0.536,1.904,1.007l7.836,11.479H61.527z"/>
	<path fill="#FFFFFF" d="M25.377,34.549c0,1.1-0.9,2-2,2H2.375c-1.1,0-2-0.9-2-2V20.383c0-1.1,0.9-2,2-2h21.002c1.1,0,2,0.9,2,2
		V34.549z"/>
	<path fill="#FFFFFF" d="M52.662,34.549c0,1.1-0.9,2-2,2H29.66c-1.1,0-2-0.9-2-2V20.383c0-1.1,0.9-2,2-2h21.002c1.1,0,2,0.9,2,2
		V34.549z"/>
	<path fill="#FFFFFF" d="M52.662,55.467c0,1.1-0.9,2-2,2H2.375c-1.1,0-2-0.9-2-2V41.3c0-1.1,0.9-2,2-2h48.287c1.1,0,2,0.9,2,2
		V55.467z"/>
</g>
</svg>
