<svg xmlns="http://www.w3.org/2000/svg" width="32" height="32" viewBox="0 0 32 32">
  <defs>
    <style>
      .a {
        fill: #0075b1;
      }
    </style>
  </defs>
  <title>dcc</title>
  <g>
    <path class="a" d="M9,20.4a4.4,4.4,0,0,1-1.3,3.2,4.3,4.3,0,0,1-3.2,1.3H0V5.9H4.5A4.3,4.3,0,0,1,7.7,7.2,4.4,4.4,0,0,1,9,10.4ZM2.9,22.1H4.6a1.5,1.5,0,0,0,1.2-.5,1.6,1.6,0,0,0,.5-1.2v-10a1.6,1.6,0,0,0-.5-1.2,1.6,1.6,0,0,0-1.1-.5H2.9Z"/>
    <path class="a" d="M16.1,25.2a4.5,4.5,0,0,1-4.6-4.5V10.3a4.5,4.5,0,0,1,4.6-4.6A4.4,4.4,0,0,1,19.3,7a4.4,4.4,0,0,1,1.3,3.2v2.2h-3V10.2A1.7,1.7,0,0,0,16,8.5a1.6,1.6,0,0,0-1.2.5,1.6,1.6,0,0,0-.5,1.2V20.6A1.6,1.6,0,0,0,16,22.3a1.6,1.6,0,0,0,1.2-.5,1.6,1.6,0,0,0,.5-1.2V18h3v2.7a4.5,4.5,0,0,1-4.5,4.5Z"/>
    <path class="a" d="M27.5,25.2a4.5,4.5,0,0,1-4.6-4.5V10.3a4.5,4.5,0,0,1,4.6-4.6A4.4,4.4,0,0,1,30.7,7,4.4,4.4,0,0,1,32,10.3v2.2H29V10.2a1.7,1.7,0,0,0-1.7-1.7,1.6,1.6,0,0,0-1.2.5,1.6,1.6,0,0,0-.5,1.2V20.6a1.6,1.6,0,0,0,1.6,1.6,1.6,1.6,0,0,0,1.2-.5,1.6,1.6,0,0,0,.5-1.2V18h3v2.7a4.5,4.5,0,0,1-4.5,4.5Z"/>
  </g>
  <rect class="a" width="32" height="3.08"/>
  <rect class="a" y="28.9" width="32" height="3.08"/>
</svg>
