<?xml version="1.0" encoding="utf-8"?>
<!-- Generator: Adobe Illustrator 16.0.0, SVG Export Plug-In . SVG Version: 6.00 Build 0)  -->
<!DOCTYPE svg PUBLIC "-//W3C//DTD SVG 1.1//EN" "http://www.w3.org/Graphics/SVG/1.1/DTD/svg11.dtd">
<svg version="1.1" id="Layer_1" xmlns="http://www.w3.org/2000/svg" xmlns:xlink="http://www.w3.org/1999/xlink" x="0px" y="0px"
	 width="80px" height="17px" viewBox="0 0 80 17" enable-background="new 0 0 80 17" xml:space="preserve">
<g>
	<path fill="#0075B1" d="M24.309,15.857c-4.034,0-8.069-0.028-12.103,0.01c-3.72,0.033-7.439,0.007-11.158,0.025
		c-0.487,0.002-0.734-0.168-0.885-0.588C0.13,15.216,0.13,15.123,0.13,15.031c0-4.334,0-8.667,0-13.001
		c0-0.596,0.316-0.911,0.912-0.911c3.441,0,6.884-0.031,10.325,0.012c1.958,0.025,3.914,0.181,5.839,0.605
		c1.104,0.245,2.185,0.56,3.213,1.03c1.013,0.463,1.945,1.051,2.709,1.876c0.797,0.86,1.302,1.854,1.48,3.025
		c0.201,1.327-0.052,2.556-0.722,3.699c-0.43,0.733-1.03,1.323-1.704,1.841c-0.216,0.166-0.443,0.313-0.68,0.443
		c-0.165,0.092-0.249,0.217-0.206,0.402c0.044,0.188,0.209,0.188,0.359,0.203c0.063,0.006,0.128,0.002,0.192,0.002
		c3.792,0,7.583,0.006,11.375-0.005c0.706-0.002,1.41-0.077,2.078-0.341c0.54-0.211,0.874-0.714,0.85-1.285
		c-0.017-0.398-0.298-0.643-0.573-0.863c-0.53-0.429-1.131-0.742-1.747-1.027c-1.1-0.512-2.195-1.028-3.291-1.549
		c-0.529-0.25-1.052-0.513-1.578-0.767c-0.795-0.385-1.531-0.864-2.173-1.467c-0.505-0.475-0.97-0.996-1.098-1.719
		c-0.147-0.827,0.093-1.539,0.663-2.142c0.882-0.935,2.004-1.424,3.235-1.672c1.2-0.24,2.419-0.3,3.639-0.301
		c5.727-0.005,11.453,0.002,17.18-0.009c0.616-0.001,0.985,0.357,0.971,0.972c-0.021,0.842-0.007,1.685-0.006,2.527
		c0,0.371,0.114,0.484,0.487,0.484c3.764,0,7.527,0.01,11.289-0.01c0.596-0.003,0.961,0.229,1.278,0.708
		c0.666,0.996,1.38,1.958,2.069,2.936c0.785,1.112,1.564,2.228,2.352,3.34c0.446,0.636,0.897,1.268,1.348,1.899
		c0.191,0.271,0.394,0.274,0.602,0.007c0.471-0.61,0.934-1.226,1.402-1.836c0.699-0.908,1.412-1.81,2.1-2.727
		c0.557-0.742,1.127-1.471,1.692-2.204c0.432-0.558,0.853-1.124,1.271-1.689c0.197-0.265,0.457-0.413,0.781-0.42
		c0.507-0.011,1.014-0.004,1.521-0.002c0.056,0,0.111,0.012,0.168,0.024c0.138,0.031,0.185,0.09,0.084,0.222
		c-0.58,0.749-1.168,1.491-1.728,2.255c-0.321,0.437-0.653,0.864-0.981,1.295c-0.847,1.109-1.696,2.218-2.543,3.328
		c-0.48,0.629-0.957,1.26-1.438,1.889c-0.354,0.468-0.697,0.939-1.059,1.398c-0.193,0.245-0.473,0.335-0.775,0.35
		c-0.136,0.008-0.271,0.002-0.408,0.002c-7.488,0-14.98,0.004-22.471-0.006c-0.76,0-1.502-0.129-2.172-0.539
		c-0.961-0.584-1.436-1.438-1.438-2.553c-0.006-3.134-0.002-6.269-0.003-9.403c0-0.1,0.003-0.202-0.016-0.299
		c-0.033-0.182-0.149-0.287-0.336-0.305c-0.07-0.007-0.144-0.004-0.216-0.004c-2.813,0-5.625-0.01-8.438,0.005
		c-0.807,0.004-1.611,0.096-2.361,0.438c-0.388,0.177-0.666,0.454-0.783,0.879c-0.125,0.454,0.044,0.798,0.389,1.074
		c0.713,0.568,1.517,0.98,2.345,1.354c0.871,0.393,1.728,0.818,2.595,1.219c0.745,0.345,1.484,0.702,2.208,1.087
		c0.547,0.292,1.051,0.654,1.534,1.048c0.346,0.28,0.635,0.607,0.909,0.957c0.626,0.789,0.614,2.043-0.002,2.851
		c-0.669,0.877-1.587,1.346-2.594,1.685c-0.927,0.311-1.886,0.426-2.859,0.481c-0.393,0.022-0.784,0.028-1.176,0.028
		C32.105,15.859,28.208,15.857,24.309,15.857z M6.389,8.507c0,1.734,0,3.47,0,5.203c0,0.474,0.119,0.599,0.593,0.595
		c0.942-0.014,1.882,0.01,2.825-0.027c1-0.041,1.989-0.127,2.967-0.346c1.174-0.264,2.281-0.668,3.28-1.357
		c0.841-0.578,1.473-1.318,1.875-2.256c0.288-0.668,0.349-1.375,0.324-2.096c-0.041-1.108-0.443-2.069-1.173-2.895
		c-0.915-1.033-2.102-1.619-3.396-2.02c-1.34-0.416-2.721-0.56-4.115-0.596C8.684,2.688,7.798,2.705,6.913,2.708
		C6.521,2.71,6.389,2.85,6.389,3.24C6.389,4.996,6.389,6.752,6.389,8.507z M58.209,14.348c1.02,0,2.041,0,3.063,0
		c0.77,0,1.539,0,2.312-0.002c0.099,0,0.213,0.02,0.269-0.088c0.062-0.111-0.006-0.201-0.076-0.289
		c-0.158-0.201-0.314-0.404-0.471-0.609c-1.039-1.358-2.078-2.717-3.117-4.076c-0.565-0.742-1.131-1.485-1.689-2.233
		c-0.229-0.303-0.505-0.45-0.895-0.447c-1.904,0.012-3.812,0.005-5.717,0.005c-0.396,0-0.514,0.117-0.514,0.508
		c-0.001,1.384-0.001,2.769,0,4.153c0,0.592-0.007,1.186,0.002,1.775c0.012,0.71,0.299,1.085,0.951,1.234
		c0.206,0.048,0.422,0.068,0.636,0.068C54.711,14.346,56.459,14.348,58.209,14.348z"/>
</g>
</svg>
