<?xml version="1.0" encoding="utf-8"?>
<!-- Generator: Adobe Illustrator 16.0.0, SVG Export Plug-In . SVG Version: 6.00 Build 0)  -->
<!DOCTYPE svg PUBLIC "-//W3C//DTD SVG 1.1//EN" "http://www.w3.org/Graphics/SVG/1.1/DTD/svg11.dtd">
<svg version="1.1" id="Layer_1" xmlns="http://www.w3.org/2000/svg" xmlns:xlink="http://www.w3.org/1999/xlink" x="0px" y="0px"
	 width="80px" height="17px" viewBox="0 0 80 17" enable-background="new 0 0 80 17" xml:space="preserve">
<g>
	<path fill-rule="evenodd" clip-rule="evenodd" fill="#FFFFFF" d="M24.309,15.858c-4.034,0-8.069-0.029-12.103,0.009
		c-3.72,0.034-7.439,0.007-11.158,0.025c-0.487,0.002-0.734-0.167-0.885-0.587c-0.033-0.089-0.033-0.182-0.033-0.274
		c0-4.334,0-8.667,0-13.001c0-0.596,0.316-0.911,0.912-0.911c3.441,0,6.884-0.031,10.325,0.012c1.958,0.025,3.914,0.181,5.839,0.605
		c1.104,0.245,2.185,0.56,3.213,1.03c1.013,0.463,1.945,1.051,2.709,1.876c0.797,0.86,1.302,1.854,1.48,3.025
		c0.201,1.327-0.052,2.556-0.722,3.699c-0.43,0.734-1.03,1.324-1.704,1.841c-0.216,0.166-0.443,0.312-0.68,0.444
		c-0.165,0.091-0.249,0.216-0.206,0.402c0.044,0.188,0.209,0.188,0.359,0.203c0.063,0.006,0.128,0.002,0.192,0.002
		c3.792,0,7.583,0.006,11.375-0.005c0.706-0.002,1.41-0.077,2.078-0.341c0.54-0.211,0.874-0.714,0.85-1.285
		c-0.017-0.399-0.298-0.642-0.573-0.864c-0.53-0.428-1.131-0.741-1.747-1.027c-1.1-0.511-2.195-1.028-3.291-1.548
		c-0.529-0.25-1.052-0.513-1.578-0.767c-0.795-0.385-1.531-0.864-2.173-1.467c-0.505-0.475-0.97-0.996-1.098-1.719
		c-0.147-0.827,0.093-1.539,0.663-2.142c0.882-0.935,2.004-1.424,3.235-1.672c1.2-0.24,2.419-0.3,3.639-0.301
		c5.727-0.005,11.453,0.002,17.18-0.009c0.617-0.001,0.986,0.357,0.971,0.972c-0.021,0.842-0.007,1.685-0.006,2.527
		c0,0.371,0.114,0.484,0.488,0.484c3.763,0,7.526,0.01,11.289-0.01c0.595-0.003,0.96,0.229,1.278,0.708
		c0.666,0.996,1.38,1.958,2.069,2.936c0.785,1.112,1.565,2.228,2.351,3.34c0.447,0.636,0.898,1.268,1.349,1.9
		c0.191,0.271,0.393,0.274,0.601,0.006c0.47-0.61,0.933-1.225,1.402-1.836c0.699-0.908,1.413-1.809,2.1-2.726
		c0.556-0.742,1.127-1.471,1.692-2.204c0.432-0.558,0.853-1.124,1.271-1.689c0.197-0.265,0.457-0.413,0.781-0.42
		c0.507-0.011,1.013-0.004,1.521-0.002c0.056,0,0.112,0.012,0.168,0.024c0.138,0.031,0.185,0.09,0.084,0.222
		c-0.579,0.749-1.167,1.491-1.727,2.255c-0.321,0.437-0.654,0.864-0.981,1.295c-0.847,1.109-1.697,2.219-2.544,3.328
		c-0.48,0.629-0.957,1.26-1.437,1.889c-0.353,0.467-0.698,0.939-1.059,1.398c-0.193,0.245-0.472,0.335-0.775,0.349
		c-0.136,0.008-0.272,0.002-0.408,0.002c-7.489,0-14.98,0.004-22.471-0.005c-0.76-0.001-1.502-0.129-2.172-0.539
		c-0.961-0.584-1.436-1.439-1.438-2.553c-0.005-3.134-0.001-6.269-0.002-9.403c0-0.1,0.003-0.202-0.016-0.299
		c-0.033-0.182-0.149-0.287-0.336-0.305c-0.07-0.007-0.143-0.004-0.215-0.004c-2.813,0-5.626-0.01-8.439,0.005
		c-0.807,0.004-1.611,0.096-2.361,0.438c-0.388,0.177-0.666,0.454-0.783,0.879c-0.125,0.454,0.044,0.798,0.389,1.074
		c0.713,0.568,1.517,0.98,2.345,1.354c0.871,0.393,1.728,0.818,2.595,1.219c0.745,0.345,1.484,0.702,2.208,1.087
		c0.548,0.293,1.051,0.654,1.534,1.048c0.346,0.281,0.634,0.608,0.909,0.957c0.626,0.79,0.614,2.043-0.002,2.851
		c-0.669,0.877-1.587,1.346-2.594,1.684c-0.927,0.311-1.886,0.427-2.859,0.482c-0.393,0.022-0.784,0.028-1.176,0.029
		C32.105,15.859,28.208,15.858,24.309,15.858z M6.389,8.507c0,1.734,0,3.47,0,5.203c0,0.473,0.119,0.599,0.593,0.594
		c0.942-0.013,1.882,0.01,2.825-0.027c1-0.041,1.989-0.126,2.967-0.345c1.174-0.264,2.281-0.669,3.28-1.358
		c0.841-0.578,1.473-1.318,1.875-2.255c0.288-0.669,0.349-1.376,0.324-2.097c-0.041-1.108-0.443-2.069-1.173-2.895
		c-0.915-1.033-2.102-1.619-3.396-2.02c-1.34-0.416-2.721-0.56-4.115-0.596C8.684,2.688,7.798,2.705,6.913,2.708
		C6.521,2.71,6.389,2.85,6.389,3.24C6.389,4.996,6.389,6.752,6.389,8.507z M58.209,14.347c1.02,0,2.041,0,3.062,0
		c0.77,0,1.54,0,2.312-0.001c0.098,0,0.213,0.019,0.269-0.088c0.061-0.111-0.007-0.201-0.076-0.289
		c-0.159-0.201-0.315-0.405-0.471-0.609c-1.039-1.359-2.079-2.717-3.117-4.077c-0.566-0.742-1.131-1.485-1.69-2.233
		C58.27,6.747,57.993,6.6,57.604,6.603c-1.905,0.012-3.812,0.005-5.717,0.005c-0.396,0-0.514,0.117-0.514,0.508
		c-0.001,1.384-0.001,2.769,0,4.153c0,0.593-0.007,1.186,0.002,1.776c0.012,0.71,0.299,1.085,0.951,1.235
		c0.206,0.047,0.422,0.067,0.636,0.067C54.711,14.346,56.459,14.347,58.209,14.347z"/>
</g>
</svg>
