<?xml version="1.0" encoding="utf-8"?>
<!-- Generator: Adobe Illustrator 21.1.0, SVG Export Plug-In . SVG Version: 6.00 Build 0)  -->
<svg version="1.1" id="Layer_1" xmlns="http://www.w3.org/2000/svg" xmlns:xlink="http://www.w3.org/1999/xlink" x="0px" y="0px"
	 width="100px" height="100px" viewBox="0 0 100 100" style="enable-background:new 0 0 100 100;" xml:space="preserve">
<style type="text/css">
	.st0{fill:#009ECE;}
</style>
<path class="st0" d="M80.6,38.7C77.8,24.3,65.2,13.5,50,13.5c-6.2,0-11.9,1.8-16.7,4.9l6.1,6.1c3.2-1.7,6.8-2.6,10.6-2.6
	c12.7,0,22.9,10.2,22.9,22.9v2.1h6.3c6.9,0,12.5,5.6,12.5,12.5c0,4.7-2.7,8.8-6.5,10.9l6,6c5.3-3.8,8.8-10,8.8-17
	C100,48.3,91.5,39.4,80.6,38.7z M12.5,18.8L24,30.2c-13.3,0.6-24,11.5-24,25c0,13.8,11.2,25,25,25h48.9l8.3,8.3l5.3-5.3L17.8,13.5
	L12.5,18.8z M32.2,38.5l33.3,33.3H25c-9.2,0-16.7-7.5-16.7-16.7S15.8,38.5,25,38.5H32.2z"/>
</svg>
