<?xml version="1.0" encoding="utf-8"?>
<!-- Generator: Adobe Illustrator 16.0.0, SVG Export Plug-In . SVG Version: 6.00 Build 0)  -->
<!DOCTYPE svg PUBLIC "-//W3C//DTD SVG 1.1//EN" "http://www.w3.org/Graphics/SVG/1.1/DTD/svg11.dtd">
<svg version="1.1" id="Layer_1" xmlns="http://www.w3.org/2000/svg" xmlns:xlink="http://www.w3.org/1999/xlink" x="0px" y="0px"
	 width="24px" height="24px" viewBox="0 0 24 24" enable-background="new 0 0 24 24" xml:space="preserve">
<path fill="#0075B1" d="M12,0.008c-6.627,0-12,5.373-12,12c0,6.627,5.373,12,12,12s12-5.373,12-12C24,5.38,18.627,0.008,12,0.008z
	 M13.486,19.589h-2.88v-2.88h2.88V19.589z M16.853,10.529c-0.358,0.567-1.126,1.339-2.301,2.316
	c-0.608,0.505-0.985,0.912-1.133,1.22c-0.146,0.307-0.213,0.857-0.199,1.649h-2.613c-0.007-0.376-0.011-0.604-0.011-0.687
	c0-0.847,0.141-1.544,0.421-2.091c0.279-0.546,0.84-1.161,1.681-1.844c0.84-0.684,1.342-1.131,1.506-1.343
	c0.253-0.335,0.38-0.704,0.38-1.107c0-0.56-0.225-1.04-0.672-1.44c-0.447-0.399-1.05-0.599-1.809-0.599
	c-0.731,0-1.343,0.208-1.835,0.625c-0.491,0.417-0.83,1.052-1.014,1.906L6.609,8.808c0.075-1.223,0.596-2.261,1.563-3.115
	s2.236-1.281,3.808-1.281c1.653,0,2.969,0.432,3.945,1.296c0.978,0.864,1.466,1.87,1.466,3.018
	C17.391,9.361,17.211,9.962,16.853,10.529z"/>
</svg>
