<?xml version="1.0" encoding="utf-8"?>
<!-- Generator: Adobe Illustrator 21.1.0, SVG Export Plug-In . SVG Version: 6.00 Build 0)  -->
<svg version="1.1" id="Layer_1" xmlns="http://www.w3.org/2000/svg" xmlns:xlink="http://www.w3.org/1999/xlink" x="0px" y="0px"
	 width="20px" height="20px" viewBox="0 0 20 20" style="enable-background:new 0 0 20 20;" xml:space="preserve">
<style type="text/css">
	.st0{fill:#0075B1;}
</style>
<path class="st0" d="M1.9,10c0-1.7,1.4-3.1,3.1-3.1h4V5H5c-2.8,0-5,2.2-5,5s2.2,5,5,5h4v-1.9H5C3.3,13.1,1.9,11.7,1.9,10z M6,11h8V9
	H6V11z M15,5h-4v1.9h4c1.7,0,3.1,1.4,3.1,3.1s-1.4,3.1-3.1,3.1h-4V15h4c2.8,0,5-2.2,5-5S17.8,5,15,5z"/>
</svg>
