<?xml version="1.0" encoding="utf-8"?>
<!-- Generator: Adobe Illustrator 16.0.0, SVG Export Plug-In . SVG Version: 6.00 Build 0)  -->
<!DOCTYPE svg PUBLIC "-//W3C//DTD SVG 1.1//EN" "http://www.w3.org/Graphics/SVG/1.1/DTD/svg11.dtd">
<svg version="1.1" id="Layer_1" xmlns="http://www.w3.org/2000/svg" xmlns:xlink="http://www.w3.org/1999/xlink" x="0px" y="0px"
	 width="80px" height="42px" viewBox="-605 337.738 80 42" enable-background="new -605 337.738 80 42" xml:space="preserve">
<g>
	<polygon fill="#DC7F43" points="-565.112,366.949 -559.571,345.554 -565.112,339.539 -570.802,345.554 	"/>
	<polygon fill="#F08229" points="-565.098,366.891 -559.571,345.554 -565.098,339.555 	"/>
	<polygon fill="#F7A94F" points="-564.631,366.949 -557.865,345.76 -550.897,341.081 -548.62,347.805 	"/>
	<polygon fill="#FDC843" points="-550.897,341.081 -564.631,366.949 -548.62,347.805 	"/>
	<polygon fill="#76A04E" points="-537.595,345.39 -538.508,352.458 -564.198,367.126 -547.108,348.281 	"/>
	<polygon fill="#60B452" points="-537.595,345.39 -564.198,367.126 -538.508,352.458 	"/>
	<polygon fill="#0080A6" points="-563.143,367.101 -529.552,358.548 -527.197,353.125 -537.197,352.948 	"/>
	<polygon fill="#00B0C6" points="-527.197,353.125 -563.143,367.101 -529.552,358.548 	"/>
	<polygon fill="#CB363D" points="-565.587,366.986 -572.49,345.76 -579.458,341.081 -581.735,347.805 	"/>
	<polygon fill="#E62F28" points="-579.458,341.081 -565.587,366.986 -572.49,345.76 	"/>
	<polygon fill="#9F368B" points="-592.759,345.39 -591.847,352.458 -566.164,367.021 -583.247,348.281 	"/>
	<polygon fill="#E82B88" points="-583.247,348.281 -592.759,345.39 -566.164,367.021 	"/>
	<polygon fill="#584C9A" points="-567.06,367.126 -600.803,358.548 -603.159,353.125 -593.158,352.948 	"/>
	<polygon fill="#7A84BF" points="-603.159,353.125 -567.06,367.126 -593.158,352.948 	"/>
	<polygon fill="#FFFFFF" points="-595.324,377.848 -595.324,369.611 -597.459,371.253 -597.459,377.848 -599.103,377.848 
		-599.103,369.617 -601.304,371.23 -601.304,377.848 -602.97,377.848 -602.97,368.804 -601.304,368.804 -601.304,370.556 
		-598.947,368.804 -597.526,368.804 -597.526,370.618 -595.147,368.804 -593.615,368.804 -593.615,377.848 	"/>
	<polygon fill="#FFFFFF" points="-586.647,377.848 -586.647,376.227 -588.836,377.848 -590.435,377.848 -590.435,370.427 
		-588.903,370.427 -588.903,377.271 -586.647,375.599 -586.647,370.427 -584.992,370.427 -584.992,377.848 	"/>
	<rect x="-570.526" y="370.427" fill="#FFFFFF" width="1.653" height="7.421"/>
	<rect x="-542.199" y="370.516" fill="#FFFFFF" width="1.654" height="7.421"/>
	<polygon fill="#FFFFFF" points="-555.015,377.848 -555.015,372.793 -557.271,374.465 -557.271,377.848 -558.927,377.848 
		-558.927,370.427 -557.271,370.427 -557.271,373.836 -555.015,372.166 -555.015,370.427 -553.362,370.427 -553.362,377.848 	"/>
	<polygon fill="#FFFFFF" points="-581.817,377.848 -581.817,370.427 -580.162,370.427 -580.162,377.509 -578.162,377.509 
		-578.162,377.848 	"/>
	<polygon fill="#FFFFFF" points="-575.892,377.848 -575.892,370.765 -577.961,370.765 -577.961,370.427 -572.17,370.427 
		-572.17,370.765 -574.237,370.765 -574.237,377.848 	"/>
	<path fill="#FFFFFF" d="M-565.486,377.848v-8.01l0.025-0.007l-0.012-0.089l-0.004-0.025c-0.002-0.013-0.005-0.025-0.005-0.04
		c0-0.365,0.669-0.887,1.137-0.887c0,0,0.005,0.001,0.014,0.001h0.033l0.013-0.009h3.15v1.493h-0.529v-1.012h-2.168v8.103h1.089
		c0.462,0,1.079-0.474,1.079-0.956v-0.508h0.529v0.508c0.018,0.259-0.123,0.571-0.379,0.847c-0.338,0.364-0.81,0.591-1.229,0.591
		H-565.486z"/>
	<path fill="#FFFFFF" d="M-549.126,377.848c-0.631,0-1.144-0.514-1.144-1.145v-5.134c0-0.629,0.513-1.143,1.144-1.143h3.2
		c0.631,0,1.144,0.514,1.144,1.143v5.134c0,0.631-0.513,1.145-1.144,1.145H-549.126z M-548.634,377.539h2.231v-6.779h-2.231V377.539
		z"/>
	<path fill="#FFFFFF" d="M-536.807,377.848v-6.278c0-0.629,0.513-1.143,1.144-1.143h2.673v1.265h-0.467v-0.91h-1.696v6.762h0.614
		c0.597,0,1.082-0.483,1.082-1.08v-0.28h0.467v0.521c0,0.632-0.691,1.145-1.142,1.145H-536.807z"/>
	<polygon fill="#FFFFFF" points="-530.526,377.848 -530.526,370.516 -526.841,370.516 -526.841,370.795 -528.87,370.795 
		-528.87,373.426 -527.267,373.426 -527.267,373.708 -528.87,373.708 -528.87,377.568 -526.841,377.568 -526.841,377.848 	"/>
</g>
</svg>
