<?xml version="1.0" encoding="utf-8"?>
<!-- Generator: Adobe Illustrator 21.1.0, SVG Export Plug-In . SVG Version: 6.00 Build 0)  -->
<svg version="1.1" id="Layer_1" xmlns="http://www.w3.org/2000/svg" xmlns:xlink="http://www.w3.org/1999/xlink" x="0px" y="0px"
	 width="100px" height="100px" viewBox="0 0 100 100" style="enable-background:new 0 0 100 100;" xml:space="preserve">
<style type="text/css">
	.st0{fill:#009ECE;}
</style>
<polygon class="st0" points="84.9,42.9 85.2,43.1 85.4,43.2 "/>
<g>
	<g>
		<path class="st0" d="M99.5,46.9L99.5,46.9L99.5,46.9c0-0.2,0-0.5-0.2-0.9c0,0,0,0,0,0c0,0,0-0.1,0-0.1c0,0,0,0,0-0.1
			c0,0,0-0.1,0-0.1c0,0,0-0.1-0.1-0.1c0,0,0,0,0-0.1c0,0,0-0.1-0.1-0.1c0,0,0,0,0,0c0,0-0.1-0.1-0.1-0.1c0,0,0,0,0,0
			c-0.1-0.1-0.2-0.2-0.3-0.4c-0.8-1-1.9-1.7-2-1.8L94,41.3l-5.2-3.2l0,0c-0.2-0.1-4.5-2.2-10-2.2H46l1.7,1.7h29.6
			c4.9,0,8.8,1.8,9.1,1.9l7.5,4.4c0.1,0.1,0.4,0.6,0.2,1c-0.2,0.4-1.1,1.2-4.6,1.4c-0.1,0-9.1,0.6-32.4,0.7l16.6,16.6
			c7.5-0.1,14.3-0.3,16.4-0.4c3.7-0.2,4.9-1.2,5.3-1.9c4.3-1,4.4-2.8,4.4-3.1L99.5,46.9z M92.4,60.3h-2.9l1.8-9.4
			c1-0.1,1.5-0.1,1.5-0.1c2.4-0.2,3.7-0.8,4.3-1.5l0.3,8.7C97.6,58.2,97.2,59.7,92.4,60.3z"/>
		<path class="st0" d="M42.2,47.1c-22.2-0.1-31.6-0.8-31.7-0.9c-4.1-0.3-4.8-1.1-5-1.4C5.5,44.4,5.9,44,6,43.9l7.5-4.4
			c0.3-0.1,4.2-1.9,9.1-1.9h10.2L31,35.9h-9.8c-5.6,0-9.8,2.1-10,2.2l-8,5c0,0-1.2,0.8-2,1.8c-0.8,1-0.8,1.8-0.8,2L0,58.3
			c0,0.2,0.1,2,4.3,3c0.3,0.7,1.5,1.7,5.3,1.9c4.6,0.2,30.4,0.6,39,0.8v0c0,0,0.5,0,1.4,0c0.9,0,1.4,0,1.4,0v0
			c1.9,0,4.6-0.1,7.8-0.1L42.2,47.1z M7.5,60.1L7.5,60.1c-4.6-0.6-4.9-2.1-4.9-2.2l0.3-8.3C3.5,50.2,4.7,50.8,7,51c0,0,0.4,0,1,0.1
			l1.4,9.1H7.5z"/>
	</g>
	<rect x="46.6" y="9.6" transform="matrix(0.7071 -0.7071 0.7071 0.7071 -20.7107 50)" class="st0" width="6.9" height="80.8"/>
</g>
</svg>
