<?xml version="1.0" encoding="utf-8"?>
<!-- Generator: Adobe Illustrator 21.1.0, SVG Export Plug-In . SVG Version: 6.00 Build 0)  -->
<svg version="1.1" id="Layer_1" xmlns="http://www.w3.org/2000/svg" xmlns:xlink="http://www.w3.org/1999/xlink" x="0px" y="0px"
	 width="50px" height="50px" viewBox="0 0 50 50" style="enable-background:new 0 0 50 50;" xml:space="preserve">
<style type="text/css">
	.st0{fill-rule:evenodd;clip-rule:evenodd;}
	.st1{fill:#009345;}
	.st2{fill:#F7931E;}
	.st3{fill:#999999;}
</style>
<path class="st0" d="M-42.6,24.6"/>
<g>
	<path class="st1" d="M-37.6,25.8c-0.1-0.9-0.5-2.2-1.2-3.2c-1.1-1.8-4.1-4-7.8-3.5c-1.2,0.1-2,0.4-2.7,0.7c-2.2,1.1-3.8,3.1-4.3,6
		c-0.3,1.9,0.3,4.2,1,5.3c1.3,2.2,3.9,4,7.2,3.9C-40.9,34.9-37,31-37.6,25.8z M-41.3,21.2C-41.5,21.5-41.9,21.1-41.3,21.2
		L-41.3,21.2z M-44,22c0.1,0,0.1,0,0.2,0c0,0.1,0,0.1,0,0.2c-0.1,0-0.1,0-0.2,0C-44,22.1-44,22.1-44,22z M-44.1,22.4
		c-0.3,0.5-0.3-0.2-0.5-0.2c0-0.1,0-0.2,0-0.3C-44.4,22-44.5,22.4-44.1,22.4z M-44.6,20.3c0,0.3-0.8,0.3-0.6,0.5
		c-0.8,0.1-1.2,0.5-1.9,0.7c-0.3-0.3-0.1-0.4,0.1-0.7c0-0.3-0.3-0.3-0.5-0.4C-46.7,20.2-45.7,20.2-44.6,20.3z M-45,21.2
		C-44.5,20.9-44.6,21.5-45,21.2L-45,21.2z M-44.9,22.5c-0.2,0,0-0.4,0.2-0.3C-44.7,22.4-44.9,22.3-44.9,22.5z M-47.7,20.2
		c0.2,0.2-0.8,0.1-1,0.2C-48.8,20.3-48.1,20.2-47.7,20.2z M-48.1,21.1c-0.5-0.1-0.4,0.3-0.9,0.2c0-0.3,0.4-0.1,0.4-0.3
		c-0.1-0.2-0.3-0.2-0.6-0.2C-49,20.6-48.1,20.6-48.1,21.1z M-50.1,21c0.2-0.1,0.2,0,0.7-0.1c0.4,0.1-0.6,0.2-0.3,0.3
		c-0.1,0.2-0.8-0.1-0.9,0.3C-50.7,21.3-50.2,21.1-50.1,21z M-51,21.8c0.3,0.1,0.7,0.1,0.7,0.6c0.8,0,0.6-1,1.4-1
		c0.2,0.2,0,0.1,0,0.4c0.2,0,0.4,0,0.4-0.2c0.3,0,0.1,0.6,0.5,0.5c-0.2,0.5-1.2,0.2-1.5,0.6c0.1,0.2,0.3-0.2,0.5-0.1
		c-0.1,0.1-0.1,0.2,0.1,0.3c-0.3,0.2-1.1,0.3-1.6,0.8c0,0,0.1,0.2,0,0.3c-0.3,0.3-0.9,0.4-0.8,1.1c-0.1,0.3-0.1-0.3-0.1-0.4
		c-0.5-0.1-0.8,0.1-1.3,0.1C-52.4,23.6-51.7,22.7-51,21.8z M-48.1,22.5c0,0.1,0,0.1,0,0.2c-0.1,0-0.3,0-0.4,0c0-0.1,0.2-0.2,0.2-0.3
		C-48.2,22.4-48.2,22.5-48.1,22.5z M-50.7,25.8c0.2,0,0.3,0.1,0.4,0.1C-50.3,26.1-50.9,26.1-50.7,25.8z M-47.5,31.2
		c-0.3,0-0.4,0.1-0.6,0.2c0.1,0.6-0.2,0.9-0.4,1.2c-0.1-0.1-0.2-0.1-0.4-0.1c0.1,0.1,0.2,0.2,0.3,0.3c-0.2,0.3-0.7,0.3-0.6,0.8
		c-2.3-1.4-4-3.4-3.8-7.4c0.5,0.1,0.4-0.4,0.9-0.4c0,0.3-0.3,0.3-0.3,0.6c0,0.2,0.3,0,0.5,0.1c0,0.2,0,0.4,0,0.6
		c0.4,0.5,0.8,0.1,1.2-0.1c0,0.1,0,0.2,0,0.3c0.1,0,0.1-0.2,0.1-0.3c1,0,1.4,0.7,2.1,1c0.1,0.3-0.1,0.5-0.1,0.7
		c0.3-0.3,1,0.2,1.7,0.5C-47.2,29.9-47.4,30.3-47.5,31.2z M-39.9,31.6c-0.1-0.7,0.3-1,0.6-1.4C-39,30.3-39.4,31.6-39.9,31.6z
		 M-39.7,26.9c-0.1-0.9-0.8-1.2-1-2c-0.1,0.1-0.2,0.1-0.3-0.1c0.2,0.7,0.9,1.7,1.4,2.5c0.3,0.1,0.4-0.1,0.7-0.1c0,1.1-1,1.3-1.3,2.2
		c0.2,0.4,0.1,0.7,0.1,1.3c-0.3,0.1-0.4,0.4-0.7,0.5c0,0.2,0.1,0.2,0.1,0.4c-0.6,0.5-0.6,1.5-1.8,1.4c0-0.7-0.9-2.1-0.3-2.9
		c-0.1-0.5-0.2-1-0.5-1.3c0-0.2,0.2-0.3,0.1-0.6c0-0.3-0.5-0.1-0.6-0.4c-1.9,1.1-3-2.1-1.4-2.9c-0.1-0.5,0.3-0.5,0.4-0.8
		c0.4,0.2,0.8-0.3,1.5-0.1c-0.1,0.7,0.7,0.4,0.9,0.8c0.1-0.1,0.1-0.2,0.2-0.3c0.4,0.1,0.7,0.3,1.3,0.2c0.1-0.1,0.1-0.3,0.2-0.5
		c-0.2-0.4-1,0.2-1-0.6c-0.2,0-0.5-0.1-0.4,0.2c-0.3-0.2-0.5-0.6-1-0.8c-0.1,0.5,0.4,0.3,0.4,0.7c-0.6-0.8-1.5-0.4-1.9,0.3
		c-0.5,0.1-0.6-0.2-0.5-0.7c0.2,0,0.5,0,0.7,0c0-0.1,0-0.2,0.1-0.2c0-0.2-0.1-0.3-0.3-0.3c0.6-0.3,1-0.7,2-0.6
		c0.2-0.3,0.1-0.4,0.7-0.4c-0.1-0.3-0.4-0.1-0.6-0.1c-0.3-0.2,0.3-0.3,0-0.5c-0.5,0.2-0.4,0.4-0.5,0.8c-0.4-0.1-0.5-0.3-0.9-0.3
		c0.4-0.6,1.2-0.9,2.1-0.7c0,0.2,0.1,0.3,0.1,0.4c0.4,0.1,0.6-0.2,0.9-0.2c1.4,0.8,2.2,2.3,2.6,4.1c-0.4-0.2-0.8-0.3-1.1-0.6
		c-0.3,0.3,0.3,0.5,0.3,0.8c0.6-0.2,0.5-0.1,0.9,0.2C-38.4,26.5-38.9,26.8-39.7,26.9z"/>
	<path class="st1" d="M-40.4,23.7c0.1-0.5-0.7-0.3-0.3-0.7c-0.2,0.1-0.4,0.1-0.8,0.1c-0.2,0.1-0.2,0.3-0.2,0.6
		C-41.1,23.6-40.9,23.6-40.4,23.7z"/>
</g>
<g>
	<path class="st2" d="M121,25.8c-0.1-0.9-0.5-2.2-1.2-3.2c-1.1-1.8-4.1-4-7.8-3.5c-1.2,0.1-2,0.4-2.7,0.7c-2.2,1.1-3.8,3.1-4.3,6
		c-0.3,1.9,0.3,4.2,1,5.3c1.3,2.2,3.9,4,7.2,3.9C117.7,34.9,121.6,31,121,25.8z M117.3,21.2C117.1,21.5,116.7,21.1,117.3,21.2
		L117.3,21.2z M114.5,22c0.1,0,0.1,0,0.2,0c0,0.1,0,0.1,0,0.2c-0.1,0-0.1,0-0.2,0C114.5,22.1,114.5,22.1,114.5,22z M114.4,22.4
		c-0.3,0.5-0.3-0.2-0.5-0.2c0-0.1,0-0.2,0-0.3C114.2,22,114.1,22.4,114.4,22.4z M113.9,20.3c0,0.3-0.8,0.3-0.6,0.5
		c-0.8,0.1-1.2,0.5-1.9,0.7c-0.3-0.3-0.1-0.4,0.1-0.7c0-0.3-0.3-0.3-0.5-0.4C111.9,20.2,112.9,20.2,113.9,20.3z M113.5,21.2
		C114.1,20.9,114,21.5,113.5,21.2L113.5,21.2z M113.6,22.5c-0.2,0,0-0.4,0.2-0.3C113.9,22.4,113.7,22.3,113.6,22.5z M110.9,20.2
		c0.2,0.2-0.8,0.1-1,0.2C109.8,20.3,110.5,20.2,110.9,20.2z M110.5,21.1c-0.5-0.1-0.4,0.3-0.9,0.2c0-0.3,0.4-0.1,0.4-0.3
		c-0.1-0.2-0.3-0.2-0.6-0.2C109.6,20.6,110.5,20.6,110.5,21.1z M108.5,21c0.2-0.1,0.2,0,0.7-0.1c0.4,0.1-0.6,0.2-0.3,0.3
		c-0.1,0.2-0.8-0.1-0.9,0.3C107.8,21.3,108.4,21.1,108.5,21z M107.5,21.8c0.3,0.1,0.7,0.1,0.7,0.6c0.8,0,0.6-1,1.4-1
		c0.2,0.2,0,0.1,0,0.4c0.2,0,0.4,0,0.4-0.2c0.3,0,0.1,0.6,0.5,0.5c-0.2,0.5-1.2,0.2-1.5,0.6c0.1,0.2,0.3-0.2,0.5-0.1
		c-0.1,0.1-0.1,0.2,0.1,0.3c-0.3,0.2-1.1,0.3-1.6,0.8c0,0,0.1,0.2,0,0.3c-0.3,0.3-0.9,0.4-0.8,1.1c-0.1,0.3-0.1-0.3-0.1-0.4
		c-0.5-0.1-0.8,0.1-1.3,0.1C106.2,23.6,106.8,22.7,107.5,21.8z M110.5,22.5c0,0.1,0,0.1,0,0.2c-0.1,0-0.3,0-0.4,0
		c0-0.1,0.2-0.2,0.2-0.3C110.4,22.4,110.4,22.5,110.5,22.5z M107.8,25.8c0.2,0,0.3,0.1,0.4,0.1C108.3,26.1,107.7,26.1,107.8,25.8z
		 M111.1,31.2c-0.3,0-0.4,0.1-0.6,0.2c0.1,0.6-0.2,0.9-0.4,1.2c-0.1-0.1-0.2-0.1-0.4-0.1c0.1,0.1,0.2,0.2,0.3,0.3
		c-0.2,0.3-0.7,0.3-0.6,0.8c-2.3-1.4-4-3.4-3.8-7.4c0.5,0.1,0.4-0.4,0.9-0.4c0,0.3-0.3,0.3-0.3,0.6c0,0.2,0.3,0,0.5,0.1
		c0,0.2,0,0.4,0,0.6c0.4,0.5,0.8,0.1,1.2-0.1c0,0.1,0,0.2,0,0.3c0.1,0,0.1-0.2,0.1-0.3c1,0,1.4,0.7,2.1,1c0.1,0.3-0.1,0.5-0.1,0.7
		c0.3-0.3,1,0.2,1.7,0.5C111.4,29.9,111.2,30.3,111.1,31.2z M118.7,31.6c-0.1-0.7,0.3-1,0.6-1.4C119.6,30.3,119.2,31.6,118.7,31.6z
		 M118.9,26.9c-0.1-0.9-0.8-1.2-1-2c-0.1,0.1-0.2,0.1-0.3-0.1c0.2,0.7,0.9,1.7,1.4,2.5c0.3,0.1,0.4-0.1,0.7-0.1c0,1.1-1,1.3-1.3,2.2
		c0.2,0.4,0.1,0.7,0.1,1.3c-0.3,0.1-0.4,0.4-0.7,0.5c0,0.2,0.1,0.2,0.1,0.4c-0.6,0.5-0.6,1.5-1.8,1.4c0-0.7-0.9-2.1-0.3-2.9
		c-0.1-0.5-0.2-1-0.5-1.3c0-0.2,0.2-0.3,0.1-0.6c0-0.3-0.5-0.1-0.6-0.4c-1.9,1.1-3-2.1-1.4-2.9c-0.1-0.5,0.3-0.5,0.4-0.8
		c0.4,0.2,0.8-0.3,1.5-0.1c-0.1,0.7,0.7,0.4,0.9,0.8c0.1-0.1,0.1-0.2,0.2-0.3c0.4,0.1,0.7,0.3,1.3,0.2c0.1-0.1,0.1-0.3,0.2-0.5
		c-0.2-0.4-1,0.2-1-0.6c-0.2,0-0.5-0.1-0.4,0.2c-0.3-0.2-0.5-0.6-1-0.8c-0.1,0.5,0.4,0.3,0.4,0.7c-0.6-0.8-1.5-0.4-1.9,0.3
		c-0.5,0.1-0.6-0.2-0.5-0.7c0.2,0,0.5,0,0.7,0c0-0.1,0-0.2,0.1-0.2c0-0.2-0.1-0.3-0.3-0.3c0.6-0.3,1-0.7,2-0.6
		c0.2-0.3,0.1-0.4,0.7-0.4c-0.1-0.3-0.4-0.1-0.6-0.1c-0.3-0.2,0.3-0.3,0-0.5c-0.5,0.2-0.4,0.4-0.5,0.8c-0.4-0.1-0.5-0.3-0.9-0.3
		c0.4-0.6,1.2-0.9,2.1-0.7c0,0.2,0.1,0.3,0.1,0.4c0.4,0.1,0.6-0.2,0.9-0.2c1.4,0.8,2.2,2.3,2.6,4.1c-0.4-0.2-0.8-0.3-1.1-0.6
		c-0.3,0.3,0.3,0.5,0.3,0.8c0.6-0.2,0.5-0.1,0.9,0.2C120.2,26.5,119.6,26.8,118.9,26.9z"/>
	<path class="st2" d="M118.2,23.7c0.1-0.5-0.7-0.3-0.3-0.7c-0.2,0.1-0.4,0.1-0.8,0.1c-0.2,0.1-0.2,0.3-0.2,0.6
		C117.4,23.6,117.6,23.6,118.2,23.7z"/>
</g>
<g>
	<path class="st3" d="M34.3,8c0.5,0,1,0.1,1.5,0.2c0,0,0,0,0,0l2.2-2.2c-2.6-1.7-5.7-3-9.2-3.6L34.3,8z"/>
	<path class="st3" d="M47.8,21.7c-0.3-2.6-1.4-6.2-3.4-9.3c-0.4-0.7-0.9-1.4-1.5-2l-1.2,1.2c1.8,2.1,3,4.7,3.8,7.8l0.8,0.8l-1,1
		c0.2,0.1,0.4,0.3,0.8,0.6c-0.6,1.9-2.2,2.8-4.4,3.1l0,0l0,0c0,0,0,0,0,0c0,0,0,0,0,0l-1.5-1.5c0.6,0.9,1.2,1.9,1.8,2.6
		c1,0.2,1.1-0.4,2-0.3c-0.1,3.2-2.8,3.8-3.7,6.2c0.6,1.3,0.4,2.1,0.3,3.7c-0.9,0.2-1.2,1-2,1.4c0,0.5,0.3,0.6,0.3,1.1
		c-1.7,1.3-1.9,4.1-5.1,3.9c-0.1-2-2.6-5.9-0.8-8.2c-0.3-1.4-0.6-2.8-1.4-3.7c0-0.7,0.5-0.8,0.3-1.7c-0.1-0.8-1.5-0.3-1.7-1.1
		c-4.5,2.7-7.4-3.2-5.6-6.6l-0.7-0.7l3.5-3.5c-0.8-0.1-1-0.9-0.9-2c0.7,0,1.3,0,2,0c0-0.3,0.1-0.5,0.3-0.6c0.1-0.6-0.2-0.9-0.8-0.8
		c0.5-0.2,1-0.5,1.5-0.8L28.9,12c-0.8,1.2-0.7-0.8-1.3-0.7c0-0.2,0-0.4,0-0.6l-3.1-3.1c-1.4,0.5-2.5,1.3-4,1.7
		c-0.8-0.9-0.3-1.2,0.3-2c-0.1-0.8-0.8-0.9-1.4-1.1c1.7-0.4,3.6-0.6,5.7-0.5l3.3-3.3c-2-0.3-4-0.4-6.2-0.1c-3.4,0.4-5.7,1-7.6,2
		c-6.3,3.1-11,8.9-12.4,17.2c-0.9,5.5,0.9,12,2.8,15.2c3.7,6.2,11,11.5,20.5,11.3C38.3,47.6,49.5,36.4,47.8,21.7z M27.3,11.3
		c0.2,0.6-0.5,0.4-0.6,0.8C26.2,12.2,26.7,11,27.3,11.3z M18.8,5.7c0.4,0.5-2.2,0.2-2.8,0.6C15.7,5.8,17.8,5.6,18.8,5.7z M17.7,8.2
		c-1.3-0.3-1.2,0.9-2.5,0.6c-0.1-0.8,1-0.3,1.1-0.8c-0.3-0.5-0.9-0.6-1.7-0.6C15,6.6,17.8,6.8,17.7,8.2z M12.1,7.9
		c0.7-0.4,0.6,0.1,2-0.3c1.1,0.4-1.8,0.5-0.8,0.8c-0.4,0.4-2.2-0.3-2.5,0.8C10.1,8.8,11.6,8.2,12.1,7.9z M9.3,10.2
		c0.9,0.4,2.1,0.3,2,1.7c2.2,0,1.6-2.9,3.9-2.8c0.5,0.6,0,0.4,0,1.1c0.6,0.1,1.1-0.1,1.1-0.6c0.9,0,0.2,1.7,1.4,1.4
		c-0.7,1.3-3.4,0.6-4.2,1.7c0.2,0.7,0.8-0.5,1.4-0.3c-0.3,0.4-0.3,0.7,0.3,0.8c-0.9,0.5-3.2,0.8-4.5,2.3c-0.1,0.1,0.1,0.7,0,0.8
		c-0.9,0.9-2.5,1-2.3,3.1c-0.3,0.9-0.3-0.8-0.3-1.1c-1.5-0.2-2.3,0.3-3.7,0.3C5.5,15.2,7.3,12.6,9.3,10.2z M17.7,12.1
		c0,0.2,0,0.4,0,0.6c-0.4,0-0.8,0-1.1,0c0.1-0.4,0.5-0.4,0.6-0.8C17.4,11.9,17.4,12.1,17.7,12.1z M11.2,22c0.1,0.5-1.6,0.5-1.1-0.3
		C10.7,21.6,10.9,21.9,11.2,22z M19.4,36.9c-0.9-0.1-1.1,0.4-1.7,0.6c0.2,1.7-0.4,2.6-1.1,3.4c-0.3-0.2-0.6-0.3-1.1-0.3
		c0.3,0.3,0.6,0.6,0.8,0.8c-0.5,0.8-1.9,0.8-1.7,2.3c-6.7-4-11.5-9.9-11-21.1c1.4,0.2,1.2-1.2,2.5-1.1c-0.1,0.7-0.8,0.8-0.8,1.7
		c0,0.6,1,0.1,1.4,0.3c0,0.6,0,1.1,0,1.7c1.2,1.5,2.2,0.2,3.4-0.3c0,0.3,0,0.6,0,0.8c0.3,0,0.2-0.5,0.3-0.8c2.9,0.1,3.9,2,5.9,2.8
		c0.2,0.9-0.2,1.3-0.3,2c0.7-0.9,2.9,0.6,4.8,1.4C20.2,33.4,19.8,34.4,19.4,36.9z M41.1,38c-0.2-2.1,1-2.8,1.7-3.9
		C43.7,34.3,42.5,38.2,41.1,38z"/>
	<path class="st3" d="M28.7,11.8l-0.5-0.5C28.3,11.5,28.5,11.7,28.7,11.8z"/>
</g>
<polygon class="st3" points="44.7,7 41.7,4 35.1,10.6 28.5,4 25.5,7 32.1,13.5 25.5,20.1 28.5,23.1 35.1,16.5 41.7,23.1 44.7,20.1 
	38.1,13.5 "/>
</svg>
