<?xml version="1.0" encoding="utf-8"?>
<!-- Generator: Adobe Illustrator 16.0.0, SVG Export Plug-In . SVG Version: 6.00 Build 0)  -->
<!DOCTYPE svg PUBLIC "-//W3C//DTD SVG 1.1//EN" "http://www.w3.org/Graphics/SVG/1.1/DTD/svg11.dtd">
<svg version="1.1" id="Layer_1" xmlns="http://www.w3.org/2000/svg" xmlns:xlink="http://www.w3.org/1999/xlink" x="0px" y="0px"
	 width="25px" height="25px" viewBox="0 0 25 25" enable-background="new 0 0 25 25" xml:space="preserve">
<g>
	<g>
		<path fill="#FFFFFF" d="M21.713,10.048c-0.217-0.719-0.514-1.403-0.895-2.044l2.188-3.013l-1.324-1.268l-1.331-1.268l-3.157,2.092
			c-0.662-0.365-1.379-0.647-2.142-0.853L14.37,0.091h-1.876H10.63L9.935,3.695C9.186,3.9,8.467,4.183,7.795,4.547L4.647,2.456
			l-1.33,1.268L1.992,4.991l2.189,3.013c-0.382,0.642-0.678,1.325-0.893,2.044l-3.205,0.655v1.792v1.794l3.205,0.657
			c0.215,0.728,0.51,1.411,0.893,2.043l-2.189,3.022l1.325,1.271l1.33,1.256l3.148-2.087c0.672,0.367,1.39,0.652,2.139,0.848
			l0.696,3.609h1.864h1.876l0.683-3.609c0.763-0.195,1.479-0.48,2.142-0.848l3.157,2.087l1.331-1.256l1.324-1.271l-2.188-3.022
			c0.381-0.632,0.678-1.315,0.895-2.043l3.203-0.657v-1.793v-1.793L21.713,10.048z M12.494,19.375c-3.966,0-7.19-3.079-7.19-6.88
			c0-3.791,3.225-6.874,7.19-6.874c3.973,0,7.192,3.083,7.192,6.874C19.687,16.296,16.467,19.375,12.494,19.375z"/>
	</g>
	<path fill="#FFFFFF" d="M12.495,7.717c-2.76,0-4.998,2.14-4.998,4.778c0,2.648,2.238,4.788,4.998,4.788
		c2.77,0,5.011-2.14,5.011-4.788C17.506,9.857,15.265,7.717,12.495,7.717z M12.495,15.196c-1.559,0-2.821-1.213-2.821-2.701
		c0-1.488,1.262-2.697,2.821-2.697c1.56,0,2.831,1.209,2.831,2.697C15.326,13.983,14.055,15.196,12.495,15.196z"/>
</g>
</svg>
