<?xml version="1.0" encoding="utf-8"?>
<!-- Generator: Adobe Illustrator 16.0.0, SVG Export Plug-In . SVG Version: 6.00 Build 0)  -->
<!DOCTYPE svg PUBLIC "-//W3C//DTD SVG 1.1//EN" "http://www.w3.org/Graphics/SVG/1.1/DTD/svg11.dtd">
<svg version="1.1" id="Layer_1" xmlns="http://www.w3.org/2000/svg" xmlns:xlink="http://www.w3.org/1999/xlink" x="0px" y="0px"
	 width="30px" height="30px" viewBox="0 0 30 30" enable-background="new 0 0 30 30" xml:space="preserve">
<path fill="#FFFFFF" d="M19.393,0.875c-5.365,0-9.731,4.365-9.731,9.732c0,2.207,0.74,4.246,1.982,5.881l-1.971,1.971
	c-0.013,0.014-0.023,0.026-0.034,0.039c-0.161-0.033-0.328-0.051-0.496-0.051c-0.644,0-1.248,0.25-1.704,0.706L1.58,25.011
	c-0.454,0.456-0.705,1.06-0.705,1.704s0.251,1.249,0.705,1.705c0.456,0.454,1.062,0.705,1.706,0.705
	c0.643,0,1.247-0.251,1.703-0.705l5.858-5.859c0.454-0.454,0.705-1.06,0.705-1.703c0-0.168-0.018-0.336-0.052-0.496
	c0.014-0.011,0.026-0.021,0.04-0.035l1.972-1.971c1.634,1.243,3.673,1.983,5.88,1.983c5.366,0,9.732-4.365,9.732-9.731
	C29.125,5.24,24.759,0.875,19.393,0.875z M19.393,18.387c-4.289,0-7.778-3.49-7.778-7.779s3.489-7.779,7.778-7.779
	c4.291,0,7.779,3.49,7.779,7.779S23.684,18.387,19.393,18.387z"/>
<rect x="16.125" y="7.232" fill="#FFFFFF" width="6.688" height="1"/>
<rect x="16.125" y="10.201" fill="#FFFFFF" width="6.688" height="1"/>
<rect x="16.125" y="13.17" fill="#FFFFFF" width="6.688" height="1"/>
<path fill="#FFFFFF" d="M11.109,19.465c-0.078-0.111-0.166-0.215-0.262-0.312c-0.099-0.097-0.201-0.185-0.313-0.263l1.699-1.698
	c0.184,0.199,0.374,0.39,0.573,0.573L11.109,19.465z"/>
</svg>
