<?xml version="1.0" encoding="utf-8"?>
<!-- Generator: Adobe Illustrator 16.0.0, SVG Export Plug-In . SVG Version: 6.00 Build 0)  -->
<!DOCTYPE svg PUBLIC "-//W3C//DTD SVG 1.1//EN" "http://www.w3.org/Graphics/SVG/1.1/DTD/svg11.dtd">
<svg version="1.1" id="Layer_1" xmlns="http://www.w3.org/2000/svg" xmlns:xlink="http://www.w3.org/1999/xlink" x="0px" y="0px"
	 width="100px" height="100px" viewBox="0 0 100 100" enable-background="new 0 0 100 100" xml:space="preserve" >
<g>
	<path fill="#009ECE" d="M36.73,21.247c-0.554,0.554-1.011,1.179-1.374,1.865c-0.245,0.464-4.354,10.622-4.354,10.622
		c-3.147,7.69-7.722,14.568-13.597,20.443l-2.871,2.869c-5.979,5.979-6.058,15.658-0.175,21.572
		c2.87,2.889,6.689,4.477,10.755,4.477c0.004,0,0.008,0,0.013,0c2.253,0,4.431-0.49,6.414-1.417l5.329,5.33
		c0.282,0.282,0.653,0.423,1.023,0.423c0.34,0,0.679-0.121,0.952-0.359l7.504,7.504c1.393,1.394,3.223,2.09,5.053,2.09
		c1.831,0,3.661-0.696,5.053-2.09c2.787-2.786,2.787-7.32,0-10.107l-7.499-7.499l1.014-1.015c0.271-0.271,0.424-0.639,0.424-1.022
		c0-0.385-0.153-0.753-0.424-1.023l-4.22-4.22c4.164-3.099,8.699-5.659,13.561-7.648c0,0,10.132-4.076,10.932-4.524
		c0.84-0.469,1.555-1.201,1.555-1.201c5.487-5.113,1.753-17.157-8.077-26.989C53.888,19.493,42.032,15.944,36.73,21.247z
		 M54.408,86.515c1.295,1.296,1.573,3.224,0.846,4.797c-0.268-1.385-0.94-2.66-1.96-3.679l-7.501-7.501l1.117-1.117L54.408,86.515z
		 M46.899,74.932l-0.953,0.952l-3.531-3.531c0.343-0.293,0.687-0.584,1.035-0.87L46.899,74.932z M58.816,43.333L58.816,43.333
		h-0.002l-0.002,0.003c-0.731,0.721-3.64,0.002-6.372-2.73c-1.313-1.312-2.316-2.842-2.756-4.2
		c-0.325-1.002-0.314-1.836,0.027-2.177c0.176-0.176,0.48-0.264,0.874-0.264c0.371,0,0.816,0.079,1.304,0.237
		c1.357,0.439,2.889,1.444,4.198,2.754C58.823,39.693,59.542,42.607,58.816,43.333z M69.75,54.268
		c-0.334,0.333-0.491,0.479-1.058,0.79c-0.565,0.313-1.125,0.476-1.125,0.476c-1.868,0.571-4.342,0.415-7.147-0.493
		c-2.041-0.661-4.15-1.674-6.241-2.977l6.68-6.68c0.002-0.001,0.003-0.002,0.003-0.003c2.208-2.208,1.035-6.708-2.728-10.47
		c-1.647-1.649-3.549-2.877-5.353-3.463c-2.135-0.69-3.952-0.43-5.117,0.735l0,0l-0.001-0.001l-6.684,6.684
		c-1.303-2.092-2.315-4.2-2.977-6.242c-0.91-2.81-1.064-5.288-0.49-7.156c0,0,0.188-0.624,0.413-1.009
		c0.226-0.385,0.513-0.828,0.849-1.164c1.105-1.104,2.699-1.626,4.605-1.626c5.022,0,12.205,3.619,18.292,9.703
		C70.066,39.767,73.765,50.252,69.75,54.268z"/>
	<path fill="#009ECE" d="M88.553,37.408H75.314c-0.8,0-1.447,0.648-1.447,1.447c0,0.8,0.647,1.447,1.447,1.447h13.238
		c0.798,0,1.447-0.647,1.447-1.447C90,38.056,89.351,37.408,88.553,37.408z"/>
	<path fill="#009ECE" d="M69.287,31.391c0.246,0.527,0.767,0.836,1.312,0.836c0.205,0,0.414-0.044,0.611-0.137l14.648-6.83
		c0.724-0.338,1.037-1.2,0.7-1.923c-0.338-0.726-1.2-1.038-1.923-0.7l-14.648,6.831C69.264,29.806,68.949,30.667,69.287,31.391z"/>
	<path fill="#009ECE" d="M64.147,25.901c0.271,0.228,0.6,0.339,0.931,0.339c0.411,0,0.821-0.177,1.108-0.518l10.872-12.957
		c0.515-0.613,0.435-1.526-0.177-2.04c-0.611-0.514-1.525-0.434-2.039,0.178L63.969,23.861
		C63.455,24.474,63.535,25.387,64.147,25.901z"/>
	<path fill="#009ECE" d="M58.007,21.213c0.126,0.034,0.252,0.05,0.376,0.05c0.639,0,1.223-0.427,1.397-1.074l4.026-15.032
		c0.207-0.772-0.251-1.566-1.023-1.773c-0.771-0.207-1.565,0.251-1.772,1.023L56.984,19.44
		C56.776,20.213,57.236,21.006,58.007,21.213z"/>
</g>
</svg>
