<?xml version="1.0" encoding="utf-8"?>
<!-- Generator: Adobe Illustrator 16.0.0, SVG Export Plug-In . SVG Version: 6.00 Build 0)  -->
<!DOCTYPE svg PUBLIC "-//W3C//DTD SVG 1.1//EN" "http://www.w3.org/Graphics/SVG/1.1/DTD/svg11.dtd">
<svg version="1.1" id="Layer_1" xmlns="http://www.w3.org/2000/svg" xmlns:xlink="http://www.w3.org/1999/xlink" x="0px" y="0px"
	 width="100px" height="100px" viewBox="0 0 100 100" enable-background="new 0 0 100 100" xml:space="preserve">
<path fill="#009ECE" d="M85,27.5H65v-5c0-2.75-2.251-5-5-5H40c-2.749,0-5,2.25-5,5v5H15c-2.749,0-5,2.25-5,5v45c0,2.749,2.251,5,5,5
	h70c2.749,0,5-2.251,5-5v-45C90,29.75,87.749,27.5,85,27.5z M40,22.51c0.002-0.002,0.005-0.007,0.01-0.01h19.982
	c0.003,0.002,0.008,0.005,0.01,0.01v4.99h-20v-4.99H40z M85,47.5H75V55c0,1.375-1.125,2.5-2.5,2.5h-5c-1.375,0-2.5-1.125-2.5-2.5
	v-7.5H35V55c0,1.375-1.125,2.5-2.5,2.5h-5c-1.375,0-2.5-1.125-2.5-2.5v-7.5H15v-5h70V47.5z"/>
</svg>
