<?xml version="1.0" encoding="utf-8"?>
<!-- Generator: Adobe Illustrator 16.0.0, SVG Export Plug-In . SVG Version: 6.00 Build 0)  -->
<!DOCTYPE svg PUBLIC "-//W3C//DTD SVG 1.1//EN" "http://www.w3.org/Graphics/SVG/1.1/DTD/svg11.dtd">
<svg version="1.1" id="Layer_1" xmlns="http://www.w3.org/2000/svg" xmlns:xlink="http://www.w3.org/1999/xlink" x="0px" y="0px"
	 width="100px" height="100px" viewBox="0 0 100 100" enable-background="new 0 0 100 100" xml:space="preserve">
<g>
	<g>
		<path fill="#009ECE" d="M86.655,32.51c-6.938-0.996-14.326-1.719-22.036-2.127L77.5,17.5l-5-5L54.956,30.043
			C53.318,30.016,51.665,30,50,30l0,0L30,10l-5,5l15.172,15.173c-9.447,0.333-18.464,1.136-26.827,2.337
			C11.195,40.926,10,50.225,10,60c0,9.781,1.192,19.078,3.345,27.496C24.568,89.107,36.965,90,50,90s25.432-0.893,36.655-2.504
			C88.804,79.078,90,69.781,90,60C90,50.225,88.809,40.928,86.655,32.51z M81.97,81.316c-9.789,1.248-20.6,1.941-31.97,1.941
			s-22.181-0.693-31.97-1.941C16.155,74.793,15.114,67.582,15.114,60c0-7.578,1.041-14.785,2.916-21.31
			c9.786-1.249,20.6-1.944,31.97-1.944s22.181,0.695,31.967,1.944c1.874,6.524,2.918,13.731,2.918,21.31
			C84.886,67.582,83.847,74.793,81.97,81.316z"/>
	</g>
	<path fill="#009ECE" d="M50,51c-6.979,0-13.028,4.064-16,10c2.972,5.936,9.021,10,16,10c6.979,0,13.027-4.064,16-10
		C63.027,55.064,56.979,51,50,51z M57.889,56.303c1.881,1.199,3.473,2.805,4.67,4.697c-1.197,1.891-2.789,3.498-4.67,4.697
		C55.527,67.205,52.799,68,50,68s-5.527-0.795-7.889-2.303c-1.88-1.199-3.473-2.805-4.67-4.697c1.197-1.891,2.79-3.498,4.67-4.697
		c0.122-0.078,0.246-0.154,0.371-0.227C42.171,56.93,42,57.852,42,58.813c0,4.418,3.582,8,8,8s8-3.582,8-8
		c0-0.963-0.17-1.883-0.482-2.736C57.643,56.148,57.766,56.225,57.889,56.303L57.889,56.303z M50,58c0,1.658-1.343,3-3,3
		s-3-1.342-3-3c0-1.656,1.343-3,3-3S50,56.344,50,58z"/>
</g>
</svg>
