<?xml version="1.0" encoding="utf-8"?>
<!-- Generator: Adobe Illustrator 16.0.0, SVG Export Plug-In . SVG Version: 6.00 Build 0)  -->
<!DOCTYPE svg PUBLIC "-//W3C//DTD SVG 1.1//EN" "http://www.w3.org/Graphics/SVG/1.1/DTD/svg11.dtd">
<svg version="1.1" id="Layer_1" xmlns="http://www.w3.org/2000/svg" xmlns:xlink="http://www.w3.org/1999/xlink" x="0px" y="0px"
	 width="100px" height="100px" viewBox="0 0 100 100" enable-background="new 0 0 100 100" xml:space="preserve">
<g>
	<g>
		<path fill="#009ECE" d="M85.457,72.083c-0.258-0.867-0.617-1.692-1.076-2.466l2.641-3.63l-1.6-1.531l-1.602-1.528l-3.809,2.524
			c-0.797-0.44-1.66-0.783-2.578-1.029l-0.824-4.344h-2.262h-2.25l-0.836,4.344c-0.906,0.247-1.77,0.589-2.58,1.029l-3.797-2.524
			l-1.6,1.528l-1.6,1.531l2.641,3.63c-0.461,0.774-0.818,1.599-1.078,2.466l-4.541,0.789v2.162v2.164l4.541,0.789
			c0.26,0.877,0.617,1.701,1.078,2.463l-2.641,3.642l1.6,1.531l1.6,1.518l3.797-2.513c0.811,0.438,1.674,0.781,2.58,1.019L72.098,90
			h2.25h2.262l0.824-4.354c0.918-0.237,1.781-0.58,2.578-1.019l3.809,2.513l1.602-1.518l1.6-1.531l-2.641-3.642
			c0.459-0.762,0.818-1.586,1.076-2.463L90,77.197v-2.163v-2.163L85.457,72.083z M74.348,83.324c-4.781,0-8.67-3.708-8.67-8.292
			c0-4.57,3.889-8.289,8.67-8.289c4.791,0,8.67,3.719,8.67,8.289C83.018,79.616,79.139,83.324,74.348,83.324z"/>
		<path fill="#009ECE" d="M70.945,75.033c0-1.796,1.525-3.252,3.402-3.252C72.469,71.781,70.945,73.237,70.945,75.033
			s1.523,3.253,3.402,3.253C72.471,78.286,70.945,76.829,70.945,75.033z"/>
	</g>
	<g>
		<path fill="#009ECE" d="M69.738,86.916c-0.311-0.102-0.609-0.231-0.914-0.358l-4.139,2.737l-5.242-5.013l2.861-3.956
			c-0.143-0.292-0.268-0.587-0.383-0.886l-4.957-0.86v-7.092l4.957-0.859c0.115-0.3,0.24-0.596,0.385-0.877l-2.863-3.956
			l5.242-5.014l4.139,2.738c0.305-0.138,0.604-0.257,0.916-0.368l0.385-2.014V35.283h0.473C70.598,21.348,59.068,10,44.887,10
			c-14.18,0-25.715,11.348-25.715,25.283h0.473v37.72L10,77.327l0.926,2.542L10,90h28.592h1.416h9.754h1.418h19.145L69.738,86.916z
			 M65.895,51.333c-0.625,0-1.129-0.483-1.129-1.08s0.504-1.08,1.129-1.08c0.623,0,1.129,0.483,1.129,1.08
			S66.518,51.333,65.895,51.333z M23.979,51.333c-0.623,0-1.129-0.483-1.129-1.08s0.506-1.08,1.129-1.08
			c0.625,0,1.131,0.483,1.131,1.08S24.604,51.333,23.979,51.333z M51.021,84.837H38.748L34.336,66.78
			c0.924-0.534,2.691-2.074,3.51-6.254c-8.705-3.433-14.996-13.02-14.996-24.283c0-0.327,0.027-0.647,0.041-0.959h43.988
			c0.023,0.312,0.039,0.632,0.039,0.959c0,11.266-6.287,20.851-14.994,24.283c0.818,4.179,2.596,5.72,3.51,6.254L51.021,84.837z"/>
	</g>
	<path fill="#009ECE" d="M74.348,69.272c-3.328,0-6.027,2.58-6.027,5.761c0,3.19,2.699,5.772,6.027,5.772
		c3.338,0,6.037-2.582,6.037-5.772C80.385,71.852,77.686,69.272,74.348,69.272z M74.348,78.286c-1.879,0-3.402-1.457-3.402-3.253
		s1.523-3.252,3.402-3.252c1.877,0,3.412,1.456,3.412,3.252S76.225,78.286,74.348,78.286z"/>
</g>
</svg>
