<?xml version="1.0" encoding="utf-8"?>
<!-- Generator: Adobe Illustrator 16.0.0, SVG Export Plug-In . SVG Version: 6.00 Build 0)  -->
<!DOCTYPE svg PUBLIC "-//W3C//DTD SVG 1.1//EN" "http://www.w3.org/Graphics/SVG/1.1/DTD/svg11.dtd">
<svg version="1.1" id="Layer_1" xmlns="http://www.w3.org/2000/svg" xmlns:xlink="http://www.w3.org/1999/xlink" x="0px" y="0px"
	 width="100px" height="100px" viewBox="0 0 100 100" enable-background="new 0 0 100 100" xml:space="preserve">
<g>
	<path fill="#009ECE" d="M50.648,59.208c-8.964,0-16.258-7.294-16.258-16.255c0-8.964,7.294-16.259,16.258-16.259
		c8.969,0,16.257,7.295,16.257,16.259C66.905,51.915,59.617,59.208,50.648,59.208z"/>
	<path fill="#009ECE" d="M50.648,61.605c-22.938,0-22.938,6.666-22.938,11.701h45.875C73.585,68.271,73.585,61.605,50.648,61.605z"
		/>
	<path fill="#009ECE" d="M24.434,64.383c-5.639,0-10.232-4.593-10.232-10.228c0-5.643,4.593-10.231,10.232-10.231
		c5.643,0,10.231,4.588,10.231,10.231C34.665,59.79,30.076,64.383,24.434,64.383z"/>
	<path fill="#009ECE" d="M27.387,65.957c-0.915-0.04-1.89-0.068-2.953-0.068C10,65.889,10,70.084,10,73.254h15.638
		C25.638,71.136,25.66,68.424,27.387,65.957z"/>
	<path fill="#009ECE" d="M73.587,39.911c-1.682,0-3.28,0.363-4.725,1.007c0.074,0.668,0.116,1.349,0.116,2.035
		c0,5.334-2.29,10.143-5.94,13.494c1.854,3.97,5.887,6.735,10.549,6.735c6.418,0,11.632-5.223,11.632-11.636
		C85.219,45.135,80.005,39.911,73.587,39.911z"/>
	<path fill="#009ECE" d="M75.657,73.268H90c0-3.601,0-8.373-16.413-8.373c-0.185,0-0.366,0.002-0.55,0.003
		C75.636,67.628,75.657,70.84,75.657,73.268z"/>
</g>
</svg>
