<?xml version="1.0" encoding="utf-8"?>
<!-- Generator: Adobe Illustrator 16.0.0, SVG Export Plug-In . SVG Version: 6.00 Build 0)  -->
<!DOCTYPE svg PUBLIC "-//W3C//DTD SVG 1.1//EN" "http://www.w3.org/Graphics/SVG/1.1/DTD/svg11.dtd">
<svg version="1.1" id="Layer_1" xmlns="http://www.w3.org/2000/svg" xmlns:xlink="http://www.w3.org/1999/xlink" x="0px" y="0px"
	 width="100px" height="100px" viewBox="0 0 100 100" enable-background="new 0 0 100 100" xml:space="preserve">
<g>
	<path fill="#009ECE" d="M82.154,24.699H17.845c-4.325,0-7.845,3.52-7.845,7.845v34.911c0,4.325,3.52,7.845,7.845,7.845h64.309
		c4.326,0,7.846-3.52,7.846-7.845V32.544C90,28.219,86.48,24.699,82.154,24.699z M17.845,29.182h64.309
		c1.852,0,3.363,1.506,3.363,3.363v4.031H14.482v-4.031C14.482,30.688,15.994,29.182,17.845,29.182z M82.154,70.818H17.845
		c-1.852,0-3.363-1.506-3.363-3.363V46.004h71.035v21.451C85.518,69.312,84.006,70.818,82.154,70.818z"/>
</g>
<g>
	<path fill="#009ECE" d="M51.568,64.595c-0.025,0.297-0.069,0.608-0.124,0.933c-0.325,0.057-0.638,0.101-0.934,0.128
		c-0.297,0.028-0.588,0.043-0.87,0.043c-0.284,0-0.574-0.015-0.869-0.043c-0.299-0.027-0.61-0.071-0.938-0.128
		c-0.054-0.324-0.096-0.635-0.127-0.933c-0.028-0.295-0.041-0.587-0.041-0.871c0-0.282,0.013-0.571,0.041-0.87
		c0.031-0.294,0.073-0.607,0.127-0.933c0.327-0.042,0.639-0.076,0.938-0.105c0.295-0.028,0.585-0.043,0.869-0.043
		c0.282,0,0.573,0.016,0.87,0.043c0.296,0.03,0.608,0.064,0.934,0.105c0.055,0.326,0.099,0.639,0.124,0.933
		c0.031,0.299,0.044,0.588,0.044,0.87C51.612,64.008,51.6,64.3,51.568,64.595z"/>
	<path fill="#009ECE" d="M54.193,56.342c-0.223,0.466-0.49,0.862-0.808,1.189c-0.321,0.324-0.657,0.594-1.01,0.804
		c-0.356,0.212-0.669,0.383-0.952,0.511v1.931c-0.311,0.041-0.617,0.077-0.913,0.104c-0.297,0.03-0.566,0.043-0.806,0.043
		c-0.256,0-0.527-0.013-0.818-0.043c-0.291-0.028-0.578-0.064-0.859-0.104v-3.99c0.365-0.043,0.727-0.11,1.081-0.202
		c0.352-0.091,0.67-0.215,0.945-0.371s0.497-0.351,0.67-0.584c0.168-0.233,0.252-0.514,0.252-0.837c0-0.482-0.177-0.847-0.528-1.093
		c-0.354-0.247-0.826-0.373-1.423-0.373c-0.271,0-0.51,0.011-0.72,0.033c-0.214,0.021-0.425,0.056-0.63,0.105
		c-0.204,0.049-0.42,0.109-0.645,0.18c-0.229,0.072-0.474,0.156-0.744,0.255c-0.086-0.184-0.174-0.395-0.266-0.636
		c-0.093-0.24-0.172-0.489-0.243-0.741c-0.07-0.257-0.136-0.508-0.191-0.755c-0.056-0.247-0.089-0.478-0.104-0.689
		c0.394-0.14,0.759-0.261,1.094-0.362c0.329-0.097,0.647-0.175,0.952-0.233c0.303-0.054,0.607-0.098,0.903-0.126
		c0.295-0.029,0.608-0.044,0.934-0.044c1.711,0,3,0.388,3.861,1.167c0.86,0.778,1.293,1.853,1.293,3.227
		C54.519,55.331,54.411,55.874,54.193,56.342z"/>
</g>
</svg>
