<?xml version="1.0" encoding="utf-8"?>
<!-- Generator: Adobe Illustrator 16.0.0, SVG Export Plug-In . SVG Version: 6.00 Build 0)  -->
<!DOCTYPE svg PUBLIC "-//W3C//DTD SVG 1.1//EN" "http://www.w3.org/Graphics/SVG/1.1/DTD/svg11.dtd">
<svg version="1.1" id="Layer_1" xmlns="http://www.w3.org/2000/svg" xmlns:xlink="http://www.w3.org/1999/xlink" x="0px" y="0px"
	 width="100px" height="100px" viewBox="0 0 100 100" enable-background="new 0 0 100 100" xml:space="preserve">
<g>
	<g>
		<path fill="#009ECE" d="M24.292,74.599c-0.054,0-0.096,0.011-0.128,0.029c-0.031,0.021-0.046,0.05-0.046,0.092
			c0,0.03,0.005,0.054,0.017,0.067c0.012,0.016,0.027,0.028,0.044,0.035c0.017,0.006,0.036,0.011,0.055,0.013
			c0.02,0.001,0.035,0.001,0.05,0.001c0.017,0,0.033,0,0.05-0.003c0.017-0.003,0.03-0.005,0.043-0.007v-0.218
			c-0.014-0.004-0.027-0.006-0.043-0.006C24.319,74.602,24.305,74.599,24.292,74.599z"/>
		<path fill="#009ECE" d="M21.333,74.396c-0.012-0.021-0.03-0.039-0.05-0.051c-0.02-0.012-0.045-0.019-0.075-0.019
			c-0.028,0-0.052,0.005-0.071,0.015c-0.02,0.011-0.035,0.026-0.048,0.044c-0.012,0.019-0.021,0.041-0.025,0.063
			c-0.005,0.023-0.009,0.049-0.009,0.077v0.292c0.03,0.009,0.064,0.013,0.103,0.013c0.068,0,0.121-0.021,0.158-0.066
			c0.036-0.044,0.055-0.11,0.055-0.199c0-0.033-0.002-0.067-0.009-0.095C21.356,74.439,21.348,74.414,21.333,74.396z"/>
		<polygon fill="#009ECE" points="84.887,60.444 85.197,60.637 85.443,60.792 		"/>
		<path fill="#009ECE" d="M22.704,74.307c-0.062,0-0.106,0.024-0.133,0.07c-0.027,0.047-0.041,0.112-0.041,0.198
			c0,0.085,0.014,0.152,0.041,0.198c0.026,0.044,0.071,0.067,0.133,0.067c0.061,0,0.105-0.023,0.133-0.067
			c0.026-0.046,0.041-0.113,0.041-0.198c0-0.086-0.014-0.151-0.041-0.198C22.81,74.331,22.765,74.307,22.704,74.307z"/>
		<path fill="#009ECE" d="M89.635,65.086l0-0.011l-0.002-0.034c0.003-0.083-0.003-0.322-0.123-0.658
			c-0.001-0.006-0.005-0.016-0.008-0.021c-0.011-0.03-0.021-0.062-0.035-0.094c-0.007-0.018-0.015-0.036-0.023-0.057
			c-0.01-0.021-0.019-0.041-0.029-0.064c-0.012-0.026-0.026-0.056-0.041-0.084c-0.007-0.013-0.013-0.027-0.021-0.043
			c-0.018-0.035-0.039-0.069-0.058-0.105c-0.006-0.01-0.01-0.02-0.015-0.026c-0.021-0.037-0.045-0.075-0.068-0.112
			c-0.006-0.008-0.011-0.018-0.016-0.027c-0.061-0.092-0.13-0.188-0.208-0.287c-0.629-0.794-1.524-1.399-1.563-1.425l-2.227-1.399
			l-4.131-2.588l-0.031-0.018c-0.144-0.073-3.568-1.766-8.02-1.766H26.984c-4.451,0-7.876,1.692-8.021,1.766l-6.389,4.005
			c-0.037,0.025-0.932,0.631-1.563,1.425c-0.625,0.787-0.648,1.434-0.645,1.58L10,74.233c0,0.19,0.117,1.609,3.406,2.429
			c0.274,0.527,1.189,1.398,4.238,1.557c3.68,0.189,24.33,0.505,31.185,0.604v0.033c0,0,0.399-0.006,1.107-0.016
			c0.707,0.01,1.106,0.016,1.106,0.016v-0.033c6.854-0.1,27.503-0.415,31.185-0.604c2.979-0.152,3.918-0.989,4.216-1.519
			C89.88,75.886,90,74.424,90,74.218L89.635,65.086z M15.965,75.66c-3.652-0.5-3.922-1.684-3.938-1.78l0.266-6.672
			c0.524,0.52,1.501,1.018,3.326,1.139c0.015,0.002,0.281,0.023,0.788,0.061l1.144,7.253H15.965z M19.75,75h-0.688v-1.19h0.676
			c0.007,0.034,0.009,0.067,0.009,0.101c0,0.037-0.002,0.071-0.009,0.105h-0.434v0.258h0.344c0.007,0.036,0.01,0.07,0.01,0.104
			s-0.002,0.07-0.01,0.104h-0.344v0.312h0.446c0.006,0.035,0.009,0.066,0.009,0.101C19.759,74.93,19.756,74.968,19.75,75z
			 M20.505,75.011c-0.04,0-0.077-0.004-0.118-0.011l-0.149-0.38L20.092,75c-0.042,0.007-0.081,0.011-0.119,0.011
			c-0.039,0-0.08-0.004-0.122-0.011l0.195-0.441l-0.165-0.415c0.036-0.005,0.078-0.011,0.12-0.011s0.086,0.006,0.129,0.011
			l0.108,0.346l0.109-0.346c0.042-0.005,0.083-0.011,0.127-0.011c0.042,0,0.081,0.006,0.122,0.011l-0.165,0.415L20.628,75
			C20.584,75.007,20.543,75.011,20.505,75.011z M21.589,74.75c-0.021,0.057-0.051,0.104-0.092,0.144
			c-0.039,0.042-0.088,0.072-0.146,0.092c-0.057,0.022-0.122,0.033-0.195,0.033c-0.018,0-0.037,0-0.056-0.003
			c-0.018-0.002-0.034-0.003-0.046-0.005v0.382c-0.021,0.001-0.041,0.004-0.06,0.006c-0.02,0-0.038,0.002-0.057,0.002
			c-0.019,0-0.039-0.002-0.059-0.002c-0.018-0.002-0.038-0.005-0.059-0.006v-1.25c0.014-0.002,0.03-0.004,0.045-0.007
			c0.014,0,0.031-0.003,0.05-0.003c0.03,0,0.063,0.006,0.094,0.011c0.003,0.008,0.006,0.017,0.009,0.024
			c0.002,0.012,0.006,0.021,0.008,0.033c0.002,0.015,0.005,0.024,0.007,0.038c0.001,0.011,0.002,0.021,0.004,0.028
			c0.009-0.018,0.022-0.034,0.037-0.052c0.014-0.019,0.032-0.032,0.052-0.046c0.021-0.016,0.043-0.023,0.068-0.031
			c0.026-0.009,0.054-0.014,0.085-0.014c0.047,0,0.091,0.008,0.133,0.026c0.042,0.017,0.078,0.044,0.108,0.082
			c0.032,0.035,0.055,0.077,0.072,0.134c0.018,0.055,0.026,0.117,0.026,0.191C21.62,74.628,21.609,74.693,21.589,74.75z
			 M22.215,74.972c0,0.006-0.002,0.013-0.003,0.023c-0.018,0.005-0.039,0.01-0.065,0.012c-0.024,0.001-0.047,0.004-0.068,0.004
			c-0.085,0-0.154-0.025-0.204-0.071c-0.052-0.047-0.078-0.124-0.078-0.229v-0.919c0.04-0.006,0.08-0.008,0.119-0.008
			c0.038,0,0.076,0.002,0.114,0.008v0.867c0,0.035,0.003,0.062,0.007,0.081c0.003,0.021,0.009,0.04,0.018,0.05
			c0.009,0.014,0.018,0.021,0.032,0.026c0.014,0.003,0.03,0.007,0.049,0.007c0.009,0,0.02-0.004,0.03-0.004
			c0.01-0.001,0.02-0.001,0.031-0.003c0.012,0.044,0.018,0.088,0.018,0.13C22.215,74.955,22.215,74.963,22.215,74.972z
			 M23.091,74.749c-0.018,0.056-0.042,0.103-0.077,0.142c-0.035,0.039-0.078,0.072-0.128,0.094
			c-0.053,0.023-0.113,0.034-0.182,0.034c-0.07,0-0.131-0.011-0.182-0.034c-0.051-0.021-0.094-0.055-0.129-0.094
			c-0.033-0.039-0.058-0.086-0.075-0.142c-0.017-0.054-0.025-0.111-0.025-0.174c0-0.064,0.008-0.122,0.025-0.179
			c0.017-0.056,0.042-0.102,0.075-0.144c0.035-0.037,0.078-0.069,0.129-0.093c0.051-0.024,0.112-0.035,0.182-0.035
			c0.069,0,0.129,0.011,0.182,0.035c0.05,0.023,0.094,0.056,0.128,0.093c0.034,0.042,0.059,0.088,0.077,0.144
			c0.016,0.057,0.024,0.114,0.024,0.179C23.116,74.638,23.107,74.695,23.091,74.749z M23.815,74.286
			c-0.002,0.021-0.005,0.042-0.009,0.063c-0.012-0.004-0.025-0.004-0.041-0.004c-0.014,0-0.024,0-0.026,0
			c-0.02,0-0.041,0-0.063,0.006c-0.022,0.004-0.045,0.016-0.066,0.031c-0.021,0.015-0.038,0.042-0.052,0.073
			c-0.014,0.034-0.021,0.08-0.021,0.139v0.408c-0.019,0.003-0.039,0.005-0.059,0.006c-0.02,0-0.039,0.003-0.059,0.003
			c-0.018,0-0.038-0.003-0.056-0.003c-0.021-0.001-0.041-0.003-0.061-0.006v-0.858c0.017-0.001,0.033-0.005,0.047-0.005
			c0.015-0.003,0.032-0.006,0.048-0.006s0.033,0.003,0.049,0.006c0.017,0.002,0.033,0.004,0.047,0.008
			c0.004,0.005,0.007,0.014,0.009,0.023c0.004,0.012,0.005,0.022,0.008,0.031c0.002,0.015,0.004,0.024,0.005,0.038
			c0.002,0.011,0.002,0.021,0.004,0.028c0.024-0.034,0.055-0.066,0.09-0.092c0.037-0.025,0.079-0.043,0.132-0.043
			c0.012,0,0.024,0.003,0.039,0.003c0.014,0.003,0.024,0.003,0.032,0.007c0.001,0.011,0.003,0.023,0.003,0.037
			c0.002,0.014,0.002,0.028,0.002,0.046C23.817,74.242,23.816,74.261,23.815,74.286z M24.606,74.968
			c-0.04,0.012-0.087,0.023-0.141,0.034c-0.056,0.012-0.119,0.017-0.188,0.017c-0.056,0-0.108-0.005-0.155-0.014
			c-0.047-0.01-0.087-0.027-0.121-0.05c-0.033-0.025-0.06-0.054-0.078-0.089c-0.02-0.038-0.028-0.081-0.028-0.135
			s0.013-0.097,0.033-0.133c0.024-0.036,0.054-0.063,0.09-0.086c0.035-0.021,0.075-0.036,0.119-0.045
			c0.044-0.01,0.088-0.015,0.133-0.015c0.031,0,0.068,0,0.106,0.005v-0.021c0-0.027-0.004-0.049-0.014-0.063
			c-0.009-0.018-0.02-0.03-0.037-0.041c-0.015-0.008-0.035-0.015-0.057-0.018c-0.022-0.005-0.048-0.006-0.075-0.006
			c-0.06,0-0.124,0.013-0.189,0.035c-0.016-0.029-0.029-0.054-0.036-0.081c-0.007-0.024-0.011-0.056-0.011-0.092
			c0.048-0.018,0.097-0.028,0.146-0.036c0.048-0.006,0.093-0.011,0.135-0.011c0.115,0,0.205,0.028,0.269,0.081
			c0.065,0.055,0.098,0.145,0.098,0.266V74.968z M28.948,72.099c-0.286,0.37-0.602,0.784-0.898,1.148c-0.011,0-0.02,0-0.029,0
			c-0.975,0-1.948,0-2.922,0c-0.091-0.004-0.156-0.031-0.215-0.069c-0.036-0.02-0.064-0.051-0.096-0.076
			c-0.023-0.049-0.061-0.078-0.061-0.146c-0.012-0.427,0.027-0.904-0.018-1.297c-0.004-0.013-0.013-0.022-0.03-0.02
			c-0.342-0.017-0.752-0.017-1.094,0c-0.016,0.005-0.057-0.012-0.059,0.008c-0.156,0.004-0.307,0.046-0.312,0.177
			c-0.004,0.145,0.315,0.264,0.458,0.331c0.275,0.127,0.458,0.194,0.646,0.33c0,0.013,0.007,0.015,0.01,0.021
			c0,0.003,0,0.009,0,0.011c0.042,0.027,0.064,0.07,0.107,0.099c0.013,0.01,0.019,0.024,0.03,0.039
			c0.011,0.022,0.023,0.044,0.038,0.066c0,0.049,0,0.098,0,0.147c-0.017,0.06-0.045,0.11-0.078,0.156
			c-0.039,0.02-0.07,0.054-0.107,0.078c-0.123,0.089-0.296,0.126-0.488,0.146c-0.016,0-0.034,0-0.05,0c-0.036,0-0.072,0-0.108,0
			c-0.749,0-1.498,0-2.246,0c-0.374,0-0.749,0-1.123,0c-0.189,0-0.378,0-0.567,0c-0.17-0.016-0.405,0.034-0.528-0.028
			c0-0.005,0-0.007,0-0.011c0-0.573,0-1.146,0-1.717c0-0.007,0-0.014,0-0.02c0.004,0,0.007,0,0.01,0
			c0.046-0.05,0.23-0.031,0.362-0.031c0.33,0,0.73,0,1.044,0c0.023,0,0.045,0,0.067,0c0.044,0.025,0.128,0.005,0.187,0.013
			c0.395,0.019,0.718,0.107,0.977,0.263c0,0.002,0,0.008,0,0.008c0.044,0.01,0.059,0.048,0.098,0.062
			c0.065,0.046,0.114,0.113,0.166,0.175c0.041,0.081,0.086,0.154,0.098,0.262c0,0.083,0,0.163,0,0.246
			c-0.009,0.105-0.054,0.181-0.098,0.252c-0.04,0.049-0.077,0.098-0.117,0.147c-0.025,0.025-0.066,0.039-0.087,0.068
			c-0.025,0.013-0.054,0.024-0.069,0.048c-0.007,0.009-0.025,0.006-0.029,0.021c-0.024,0.013-0.005,0.061,0.029,0.047
			c0.466,0.017,1,0.017,1.466,0c0.017-0.005,0.057,0.013,0.058-0.009c0.193,0.032,0.362-0.157,0.214-0.283
			c-0.018-0.034-0.059-0.046-0.088-0.069c-0.27-0.146-0.573-0.259-0.84-0.409c-0.026-0.021-0.055-0.042-0.087-0.06
			c-0.036-0.034-0.075-0.067-0.115-0.097c-0.014-0.021-0.034-0.032-0.042-0.058c0-0.005,0-0.007,0-0.011
			c-0.031-0.01-0.026-0.055-0.048-0.077c0-0.003,0-0.008,0-0.011c-0.016-0.033-0.009-0.088-0.01-0.138
			c0.019-0.024,0.019-0.07,0.038-0.097c0.03-0.045,0.066-0.084,0.108-0.116c0.116-0.098,0.275-0.156,0.479-0.165
			c0.054,0.007,0.075-0.018,0.127-0.013c0.649,0,1.408,0,2.11,0c0.125,0,0.289-0.024,0.302,0.051c0,0.074,0,0.149,0,0.225
			c0.007,0.052-0.013,0.128,0.01,0.165c0.01,0.013,0.01,0.037,0.03,0.039c0.478,0.022,0.999,0.004,1.494,0.01
			c0.021-0.003,0.026,0.006,0.039,0.011c0.049,0.075,0.101,0.146,0.158,0.214c0.008,0.018,0.022,0.028,0.029,0.048
			c0.025,0.041,0.056,0.083,0.087,0.118c0.041,0.046,0.061,0.109,0.108,0.147c0.012,0.035,0.032,0.065,0.059,0.085
			c0.008,0.02,0.022,0.028,0.029,0.05c0.044,0.063,0.089,0.127,0.136,0.185c0.011,0.018,0.024,0.03,0.031,0.05
			c0.021,0.04,0.045,0.071,0.078,0.099c0.011,0.013,0.013,0.038,0.029,0.048c0.007,0.06,0.1,0.085,0.107,0.01
			c0.289-0.34,0.534-0.722,0.831-1.053c0.07-0.022,0.178-0.005,0.265-0.011C29.055,71.972,28.988,72.043,28.948,72.099z
			 M50.484,65.258c-22.623,0-31.915-0.7-32.008-0.706c-3.276-0.232-3.865-0.884-3.966-1.153c-0.11-0.294,0.177-0.604,0.254-0.68
			l5.998-3.547c0.235-0.109,3.371-1.51,7.31-1.51h43.853c3.929,0,7.074,1.401,7.309,1.51l5.976,3.534
			c0.081,0.109,0.306,0.461,0.151,0.802c-0.16,0.352-0.845,0.969-3.65,1.152C81.627,64.666,73.116,65.258,50.484,65.258z
			 M83.955,75.839h-2.291l1.442-7.525c0.79-0.058,1.188-0.095,1.204-0.097c1.904-0.127,2.925-0.646,3.471-1.189l0.278,6.956
			C88.043,74.085,87.761,75.317,83.955,75.839z"/>
		<path fill="#009ECE" d="M21.427,72.212c-0.021-0.085-0.058-0.155-0.097-0.225c-0.029-0.047-0.064-0.092-0.118-0.115
			c-0.077-0.049-0.148-0.106-0.244-0.138c-0.018-0.011-0.042-0.021-0.069-0.028c-0.098-0.017-0.179-0.048-0.283-0.06
			c-0.011-0.02-0.063-0.003-0.088-0.008c-0.004-0.022-0.048-0.004-0.068-0.011c-0.13-0.018-0.329-0.018-0.46,0
			c-0.014,0.005-0.024,0.016-0.029,0.03c0,0.002,0,0.008,0,0.01c-0.017,0.431-0.017,0.925,0,1.355
			c-0.002,0.023,0.015,0.029,0.029,0.039c0.126,0.015,0.321,0.015,0.45,0c0.024-0.008,0.071,0.01,0.078-0.011
			c0.011,0,0.027,0.001,0.029-0.009c0.226-0.015,0.411-0.071,0.558-0.166c0.042-0.011,0.075-0.034,0.097-0.067
			c0.003,0,0.005,0,0.01,0c0.052-0.041,0.095-0.09,0.126-0.149c0.037-0.06,0.079-0.115,0.079-0.213
			c0.012-0.002,0.011-0.016,0.009-0.029c0.016-0.027,0.016-0.119,0-0.146C21.432,72.255,21.449,72.212,21.427,72.212z"/>
		<path fill="#009ECE" d="M26.37,72.125c-0.008,0-0.013,0-0.02,0c-0.001-0.007-0.002-0.011-0.01-0.011
			c-0.238-0.014-0.544-0.014-0.782,0c-0.013,0-0.022,0.008-0.03,0.011c0,0.011,0,0.019,0,0.029c-0.016,0.224-0.016,0.518,0,0.739
			c0.002,0.017-0.003,0.038,0.01,0.042c0.001,0.077,0.042,0.116,0.119,0.116c0.001,0.008,0.007,0.013,0.018,0.011
			c0.441,0.015,0.948,0.015,1.388,0c0.027-0.016-0.001-0.058-0.019-0.058C26.825,72.703,26.601,72.412,26.37,72.125z"/>
	</g>
	<g>
		<path fill="#009ECE" d="M70.466,31.052c-0.214-0.252-0.527-0.396-0.857-0.396c-0.268,0-0.528,0.096-0.731,0.27
			c-0.473,0.403-0.529,1.115-0.126,1.589c4.912,5.758,6.8,12.227,4.299,14.728c-0.739,0.739-1.813,1.114-3.191,1.114
			c-1.044,0-2.229-0.219-3.521-0.649c-3.285-1.094-6.817-3.42-9.946-6.55c-3.129-3.129-5.456-6.661-6.55-9.945
			c-1.007-3.021-0.842-5.405,0.466-6.714c0.74-0.739,1.818-1.114,3.206-1.114c3.241,0,7.548,2.023,11.522,5.414
			c0.204,0.174,0.463,0.269,0.73,0.269c0.331,0,0.644-0.144,0.858-0.395c0.402-0.474,0.346-1.186-0.126-1.59
			c-4.425-3.774-9.159-5.938-12.99-5.938c-1.983,0-3.641,0.609-4.794,1.762c-6.028,6.027-7.081,15.546-2.551,22.737
			c-0.689,1.233-0.711,2.762-0.05,4.02l-0.949,3.6h-0.943c-0.622,0-1.127,0.505-1.127,1.126c0,0.424,0.235,0.795,0.586,0.987
			l-0.196,0.698h2.34l0.125-0.447h6.704l0.125,0.447h2.34l-0.195-0.697c0.349-0.191,0.585-0.563,0.585-0.988
			c0-0.621-0.505-1.126-1.127-1.126h-0.941l-0.302-1.158c2.614,1.379,5.545,2.103,8.54,2.103c4.897,0,9.502-1.907,12.965-5.37
			C78.082,45.397,76.324,37.919,70.466,31.052z"/>
		<path fill="#009ECE" d="M61.198,35.39c-0.265,0.266-0.265,0.695,0,0.961c0.133,0.133,0.307,0.199,0.481,0.199
			c0.173,0,0.347-0.066,0.48-0.199l7.608-7.608c0.271,0.129,0.568,0.199,0.877,0.199c0.544,0,1.056-0.211,1.441-0.597
			c0.794-0.795,0.794-2.088,0-2.882c-0.386-0.385-0.897-0.598-1.441-0.598c-0.545,0-1.056,0.213-1.441,0.598
			c-0.385,0.385-0.597,0.896-0.597,1.441c0,0.309,0.07,0.606,0.2,0.877L61.198,35.39z"/>
	</g>
</g>
</svg>
