<?xml version="1.0" encoding="utf-8"?>
<!-- Generator: Adobe Illustrator 16.0.0, SVG Export Plug-In . SVG Version: 6.00 Build 0)  -->
<!DOCTYPE svg PUBLIC "-//W3C//DTD SVG 1.1//EN" "http://www.w3.org/Graphics/SVG/1.1/DTD/svg11.dtd">
<svg version="1.1" id="Layer_1" xmlns="http://www.w3.org/2000/svg" xmlns:xlink="http://www.w3.org/1999/xlink" x="0px" y="0px"
	 width="100px" height="100px" viewBox="0 0 100 100" enable-background="new 0 0 100 100" xml:space="preserve">
<g>
	<path fill="#009ECE" d="M50,10c-12.689,0-22.977,10.303-22.977,23.015c0,12.713,15.498,43.209,22.977,43.209
		c7.475,0,22.977-30.497,22.977-43.209C72.977,20.303,62.689,10,50,10z M50,45.206c-6.576,0-11.906-5.339-11.906-11.927
		c0-6.588,5.33-11.927,11.906-11.927c6.574,0,11.904,5.339,11.904,11.927C61.904,39.866,56.574,45.206,50,45.206z"/>
	<g>
		<path fill="#009ECE" d="M60.619,84.695c1.043,1.411,2.227,2.608,4.063,3.167c0.979,0.297,1.971,0.05,2.941-0.557l-1.404-2.61
			H60.619z"/>
		<path fill="#009ECE" d="M74.477,77.734H63.1l3.449,6.41h4.219C72.182,82.221,73.459,79.857,74.477,77.734z"/>
		<path fill="#009ECE" d="M70.348,84.695h-3.502l1.234,2.3C68.857,86.417,69.617,85.622,70.348,84.695z"/>
		<path fill="#009ECE" d="M81.117,77.732v0.002h-6.016c-0.986,2.086-2.24,4.436-3.656,6.41H85.76L81.117,77.732z"/>
		<path fill="#009ECE" d="M19.279,77.184h1.338c-0.115-0.709-0.129-1.301-0.121-1.679L19.279,77.184z"/>
		<path fill="#009ECE" d="M14.24,84.145h12.867c-1.863-0.515-3.369-1.388-4.484-2.634c-1.1-1.232-1.641-2.61-1.9-3.776h-1.748
			v-0.127L14.24,84.145z"/>
		<path fill="#009ECE" d="M36.477,84.145h23.078c-0.168-0.246-0.332-0.493-0.496-0.741c-1.74-2.615-3.537-5.313-8.078-5.637
			c-0.33,0.072-0.656,0.11-0.98,0.11c-0.318,0-0.643-0.038-0.971-0.109c-3.541,0.223-5.125,1.609-6.789,3.073
			C40.842,82.072,39.313,83.414,36.477,84.145z"/>
		<path fill="#009ECE" d="M34.813,77.734H21.299c0.256,1.071,0.756,2.317,1.74,3.414c1.754,1.959,4.559,2.963,8.328,2.991
			L34.813,77.734z"/>
		<path fill="#009ECE" d="M75.359,77.184h5.361l-3.406-4.702C77.098,73.077,76.396,74.934,75.359,77.184z"/>
		<path fill="#009ECE" d="M62.178,77.184l-2.604-4.84l0.242-0.131h-1.73c-1.781,2.183-3.678,4.021-5.533,4.971H62.178z"/>
		<path fill="#009ECE" d="M21.066,75.124c-0.002,0.019-0.088,0.879,0.117,2.06h13.924l2.676-4.971H22.879l-2.086,2.881
			L21.066,75.124z"/>
		<path fill="#009ECE" d="M38.336,72.344l-2.604,4.84h11.713c-1.854-0.949-3.752-2.788-5.533-4.971h-3.818L38.336,72.344z"/>
		<polygon fill="#009ECE" points="28.283,89.87 31.066,84.695 14.041,84.695 14.041,84.421 10,90 28.525,90 		"/>
		<path fill="#009ECE" d="M69.074,90l-1.195-2.221c-0.771,0.478-1.561,0.759-2.354,0.759c-0.336,0-0.668-0.049-1.004-0.15
			c-2.123-0.646-3.445-2.102-4.58-3.693h-28.25L28.838,90H69.074z"/>
		<path fill="#009ECE" d="M59.516,83.098c0.236,0.356,0.473,0.703,0.711,1.046h5.697l-3.449-6.41h-8.793
			C56.604,78.732,58.08,80.941,59.516,83.098z"/>
		<path fill="#009ECE" d="M90,90l-3.951-5.456v0.15h-15.01c-0.855,1.123-1.762,2.094-2.701,2.779l1.289,2.396L69.387,90H90z"/>
		<path fill="#009ECE" d="M31.992,84.136c5.762-0.096,7.863-1.929,9.885-3.708c1.209-1.065,2.381-2.089,4.23-2.693H35.436
			L31.992,84.136z"/>
		<path fill="#009ECE" d="M60.129,72.213l2.674,4.971h11.934c1.16-2.482,1.928-4.526,2.092-4.971H60.129z"/>
	</g>
</g>
</svg>
