<?xml version="1.0" encoding="utf-8"?>
<!-- Generator: Adobe Illustrator 16.0.0, SVG Export Plug-In . SVG Version: 6.00 Build 0)  -->
<!DOCTYPE svg PUBLIC "-//W3C//DTD SVG 1.1//EN" "http://www.w3.org/Graphics/SVG/1.1/DTD/svg11.dtd">
<svg version="1.1" id="Layer_1" xmlns="http://www.w3.org/2000/svg" xmlns:xlink="http://www.w3.org/1999/xlink" x="0px" y="0px"
	 width="100px" height="100px" viewBox="0 0 100 100" enable-background="new 0 0 100 100" xml:space="preserve">
<path fill="#009ECE" d="M81.292,41.148L90,23.181L55.897,9.793L50,22.723l-5.897-12.93L10,23.181l8.67,17.892l-7.526,16.785
	l7.862,3.747l-0.022,13.322l30.974,14.867L80.93,74.926l-0.024-13.314l7.879-3.755L81.292,41.148z M77.617,44.225l5.102,11.377
	L58.171,67.302l-5.154-11.297L77.617,44.225z M58.267,15.715l25.395,9.969l-6.008,12.393L53.069,27.105L58.267,15.715z
	 M41.733,15.715l5.197,11.39L22.346,38.077l-6.007-12.393L41.733,15.715z M22.312,44.225l24.601,11.779l-5.154,11.297L17.21,55.603
	L22.312,44.225z M76.32,71.986L49.957,84.641L23.593,71.986l0.014-8.19l20.387,9.716l5.971-13.086l5.972,13.086l20.37-9.708
	L76.32,71.986z"/>
</svg>
