<?xml version="1.0" encoding="utf-8"?>
<!-- Generator: Adobe Illustrator 16.0.0, SVG Export Plug-In . SVG Version: 6.00 Build 0)  -->
<!DOCTYPE svg PUBLIC "-//W3C//DTD SVG 1.1//EN" "http://www.w3.org/Graphics/SVG/1.1/DTD/svg11.dtd">
<svg version="1.1" id="Layer_1" xmlns="http://www.w3.org/2000/svg" xmlns:xlink="http://www.w3.org/1999/xlink" x="0px" y="0px"
	 width="100px" height="100px" viewBox="0 0 100 100" enable-background="new 0 0 100 100" xml:space="preserve">
<g>
	<rect x="19.822" y="64.2" fill="#009ECE" width="4.881" height="3.109"/>
	<rect x="27.515" y="64.2" fill="#009ECE" width="4.882" height="3.109"/>
	<rect x="34.688" y="64.2" fill="#009ECE" width="4.883" height="3.109"/>
	<g>
		<g>
			<path fill="#009ECE" d="M86.448,61.294c-0.201-0.677-0.481-1.321-0.841-1.926l2.064-2.839l-1.251-1.196l-1.252-1.194
				l-2.977,1.973c-0.623-0.344-1.298-0.611-2.016-0.805l-0.645-3.396h-1.768h-1.759l-0.653,3.396
				c-0.708,0.193-1.384,0.461-2.017,0.805l-2.968-1.973l-1.251,1.194l-1.25,1.196l2.064,2.839c-0.361,0.604-0.641,1.249-0.843,1.926
				l-3.55,0.617v1.69v1.691l3.55,0.616c0.202,0.687,0.481,1.33,0.843,1.926l-2.064,2.848l1.25,1.196l1.251,1.187l2.968-1.965
				c0.633,0.344,1.309,0.61,2.017,0.797l0.653,3.403h1.759h1.768l0.645-3.403c0.718-0.187,1.393-0.453,2.016-0.797l2.977,1.965
				l1.252-1.187l1.251-1.196l-2.064-2.848c0.359-0.596,0.64-1.239,0.841-1.926L90,65.293v-1.691v-1.69L86.448,61.294z
				 M77.765,70.082c-3.737,0-6.777-2.898-6.777-6.48c0-3.572,3.04-6.479,6.777-6.479c3.745,0,6.777,2.907,6.777,6.479
				C84.542,67.184,81.51,70.082,77.765,70.082z"/>
			<path fill="#009ECE" d="M75.105,63.602c0-1.405,1.191-2.542,2.659-2.542C76.296,61.06,75.105,62.196,75.105,63.602
				c0,1.402,1.19,2.542,2.659,2.542C76.297,66.144,75.105,65.004,75.105,63.602z"/>
		</g>
		<path fill="#009ECE" d="M77.765,59.098c-2.602,0-4.711,2.017-4.711,4.504c0,2.493,2.109,4.512,4.711,4.512
			c2.609,0,4.719-2.019,4.719-4.512C82.483,61.114,80.374,59.098,77.765,59.098z M77.765,66.144c-1.469,0-2.659-1.14-2.659-2.542
			c0-1.405,1.19-2.542,2.659-2.542c1.468,0,2.667,1.137,2.667,2.542C80.432,65.004,79.232,66.144,77.765,66.144z"/>
	</g>
	<g>
		<path fill="#009ECE" d="M74.485,72.683c-0.37-0.123-0.73-0.266-1.08-0.429l-3.148,2.084l-1.828-1.733l-1.865-1.786H17.846
			c-1.852,0-3.363-1.507-3.363-3.363V46.004h71.035v7.085l3.478,3.321l-2.207,3.034c0.157,0.313,0.297,0.636,0.42,0.967L90,60.896
			V32.544c0-4.325-3.52-7.845-7.846-7.845H17.846c-4.326,0-7.846,3.52-7.846,7.845v34.911c0,4.325,3.52,7.846,7.846,7.846h57.143
			L74.485,72.683z M14.482,32.544c0-1.856,1.512-3.362,3.363-3.362h64.309c1.852,0,3.363,1.506,3.363,3.362v4.031H14.482V32.544z"/>
	</g>
</g>
</svg>
