<?xml version="1.0" encoding="utf-8"?>
<!-- Generator: Adobe Illustrator 16.0.0, SVG Export Plug-In . SVG Version: 6.00 Build 0)  -->
<!DOCTYPE svg PUBLIC "-//W3C//DTD SVG 1.1//EN" "http://www.w3.org/Graphics/SVG/1.1/DTD/svg11.dtd">
<svg version="1.1" id="Layer_1" xmlns="http://www.w3.org/2000/svg" xmlns:xlink="http://www.w3.org/1999/xlink" x="0px" y="0px"
	 width="100px" height="100px" viewBox="0 0 100 100" enable-background="new 0 0 100 100" xml:space="preserve">
<g>
	<g>
		<path fill="#009ECE" d="M43.582,65.035v-1.454c3.525-0.339,3.915-0.673,3.915-4.477V47.578c0-3.469-0.167-3.691-3.521-4.251
			v-1.342c2.853-0.449,5.481-1.176,7.943-2.183v19.302c0,3.804,0.391,4.138,3.972,4.477v1.454H43.582z M46.55,35.693
			c0-1.681,1.342-2.911,2.853-2.911c1.564,0,2.796,1.23,2.796,2.911c0,1.509-1.231,2.853-2.853,2.853
			C47.892,38.546,46.55,37.202,46.55,35.693z"/>
	</g>
	<path fill="#009ECE" d="M90,48.907C90,26.854,72.056,8.91,50,8.91S10,26.854,10,48.907c0,17.828,11.728,32.966,27.871,38.115
		c-9.023,0.354-15.235,1.08-15.235,1.92c0,1.188,12.311,2.147,27.499,2.147c15.184,0,27.494-0.959,27.494-2.147
		c0-0.847-6.321-1.579-15.475-1.93C78.285,81.856,90,66.726,90,48.907z M65.279,16.437c0.517-0.668,5.672,0.6,9.988,3.952
		c4.316,3.354,6.16,7.527,5.642,8.194c-0.517,0.666-3.484-2.744-7.801-6.099S64.761,17.104,65.279,16.437z M50,77.08
		c-15.561,0-28.175-12.611-28.175-28.173c0-15.559,12.614-28.172,28.175-28.172s28.175,12.613,28.175,28.172
		C78.175,64.469,65.561,77.08,50,77.08z"/>
</g>
</svg>
