<?xml version="1.0" encoding="utf-8"?>
<!-- Generator: Adobe Illustrator 16.0.0, SVG Export Plug-In . SVG Version: 6.00 Build 0)  -->
<!DOCTYPE svg PUBLIC "-//W3C//DTD SVG 1.1//EN" "http://www.w3.org/Graphics/SVG/1.1/DTD/svg11.dtd">
<svg version="1.1" id="Layer_1" xmlns="http://www.w3.org/2000/svg" xmlns:xlink="http://www.w3.org/1999/xlink" x="0px" y="0px"
	 width="100px" height="100px" viewBox="0 0 100 100" enable-background="new 0 0 100 100" xml:space="preserve">
<path fill="#009ECE" d="M54.215,84.739C52.834,84.905,51.432,85,50.005,85H50c-4.917,0-9.599-1.019-13.847-2.846L54.369,61.66
	c0.41-0.46,0.634-1.049,0.634-1.66v-7.5c0-1.381-1.124-2.5-2.5-2.5c-8.826,0-18.142-9.177-18.231-9.269
	C33.8,40.261,33.164,40,32.503,40h-10c-1.381,0-2.5,1.119-2.5,2.5v15c0,0.948,0.533,1.813,1.383,2.237l8.617,4.306v14.681
	c-9.068-6.326-15-16.831-15-28.725c0-5.369,1.208-10.451,3.373-15h9.127c0.661,0,1.302-0.261,1.769-0.731l10-10
	c0.471-0.47,0.731-1.106,0.731-1.769v-6.046c3.172-0.943,6.526-1.454,10-1.454c5.504,0,10.703,1.27,15.337,3.532
	c-0.326,0.272-0.642,0.556-0.94,0.862c-2.834,2.831-4.394,6.6-4.394,10.606s1.56,7.772,4.394,10.606
	c2.845,2.851,6.655,4.397,10.595,4.397c0.251,0,0.496-0.006,0.747-0.019c0.701,2.636,1.762,8.034,1.407,15.473l6.916-6.917
	l5.01,5.01C89.675,55.795,90,52.936,90,50c0-22.09-17.909-40-40-40c-22.09,0-40,17.91-40,40s17.91,40,40,40
	c2.936,0,5.795-0.325,8.551-0.926L54.215,84.739z"/>
<polygon fill="#009ECE" points="90,84.064 79.829,73.892 90,63.719 84.064,57.783 73.893,67.956 63.72,57.783 57.783,63.719 
	67.957,73.892 67.18,74.667 67.18,74.667 57.783,84.064 63.72,90 73.893,79.828 84.064,90 "/>
</svg>
