<?xml version="1.0" encoding="utf-8"?>
<!-- Generator: Adobe Illustrator 16.0.0, SVG Export Plug-In . SVG Version: 6.00 Build 0)  -->
<!DOCTYPE svg PUBLIC "-//W3C//DTD SVG 1.1//EN" "http://www.w3.org/Graphics/SVG/1.1/DTD/svg11.dtd">
<svg version="1.1" id="Layer_1" xmlns="http://www.w3.org/2000/svg" xmlns:xlink="http://www.w3.org/1999/xlink" x="0px" y="0px"
	 width="100px" height="100px" viewBox="0 0 100 100" enable-background="new 0 0 100 100" xml:space="preserve">
<g>
	<path fill="#009ECE" d="M82.155,24.699h-64.31c-4.325,0-7.845,3.52-7.845,7.845v34.911c0,4.325,3.52,7.845,7.845,7.845h64.31
		c4.325,0,7.845-3.52,7.845-7.845V32.544C90,28.219,86.48,24.699,82.155,24.699z M17.845,29.182h64.31
		c1.852,0,3.363,1.506,3.363,3.363v4.031H14.482v-4.031C14.482,30.688,15.994,29.182,17.845,29.182z M82.155,70.818h-64.31
		c-1.852,0-3.363-1.506-3.363-3.363V46.004h71.035v21.451C85.518,69.312,84.006,70.818,82.155,70.818z"/>
	<rect x="19.822" y="64.201" fill="#009ECE" width="4.882" height="3.109"/>
	<rect x="27.515" y="64.201" fill="#009ECE" width="4.882" height="3.109"/>
	<rect x="34.688" y="64.201" fill="#009ECE" width="4.882" height="3.109"/>
</g>
</svg>
