<?xml version="1.0" encoding="utf-8"?>
<!-- Generator: Adobe Illustrator 16.0.0, SVG Export Plug-In . SVG Version: 6.00 Build 0)  -->
<!DOCTYPE svg PUBLIC "-//W3C//DTD SVG 1.1//EN" "http://www.w3.org/Graphics/SVG/1.1/DTD/svg11.dtd">
<svg version="1.1" id="Layer_1" xmlns="http://www.w3.org/2000/svg" xmlns:xlink="http://www.w3.org/1999/xlink" x="0px" y="0px"
	 width="100px" height="100px" viewBox="0 0 100 100" enable-background="new 0 0 100 100" xml:space="preserve">
<path fill="#009ECE" d="M65.172,39.398V24.097C65.172,16.324,58.365,10,50,10s-15.172,6.324-15.172,14.097v15.302
	c-7.471,4.94-12.414,13.407-12.414,23.016C22.414,77.625,34.789,90,50,90s27.586-12.375,27.586-27.586
	C77.586,52.806,72.643,44.339,65.172,39.398z M65.604,48.76l-3.901,3.9c-0.269,0.27-0.622,0.404-0.975,0.404
	c-0.354,0-0.706-0.135-0.976-0.404c-0.539-0.538-0.539-1.41,0-1.95l3.9-3.9c0.54-0.539,1.411-0.539,1.951,0
	C66.144,47.348,66.144,48.221,65.604,48.76z M48.62,41.724c0-0.763,0.617-1.378,1.38-1.378s1.38,0.615,1.38,1.378v5.518
	c0,0.764-0.617,1.379-1.38,1.379s-1.38-0.615-1.38-1.379V41.724z M37.586,37.803V24.097c0-6.251,5.569-11.338,12.414-11.338
	s12.414,5.087,12.414,11.338v13.708c-0.26-0.131-0.524-0.247-0.786-0.37c-0.542-0.253-1.093-0.49-1.653-0.71
	c-0.359-0.142-0.721-0.272-1.085-0.399c-0.358-0.122-0.715-0.246-1.079-0.354c-0.603-0.179-1.212-0.332-1.826-0.47
	c-0.266-0.059-0.533-0.115-0.803-0.168c-0.721-0.14-1.446-0.253-2.177-0.334c-0.166-0.018-0.332-0.029-0.497-0.044
	c-0.834-0.078-1.669-0.128-2.508-0.128s-1.674,0.05-2.505,0.126c-0.165,0.016-0.332,0.027-0.496,0.045
	c-0.731,0.081-1.457,0.194-2.179,0.334c-0.269,0.051-0.536,0.108-0.803,0.168c-0.613,0.138-1.223,0.291-1.825,0.47
	c-0.364,0.107-0.722,0.232-1.079,0.354c-0.364,0.126-0.728,0.258-1.085,0.398c-0.562,0.218-1.111,0.457-1.653,0.71
	C38.11,37.557,37.846,37.672,37.586,37.803z M34.396,46.81c0.54-0.539,1.411-0.539,1.951,0l3.9,3.9c0.539,0.54,0.539,1.412,0,1.95
	c-0.27,0.27-0.622,0.404-0.976,0.404c-0.353,0-0.706-0.135-0.975-0.404l-3.901-3.9C33.856,48.221,33.856,47.348,34.396,46.81z
	 M29.311,63.793c-0.763,0-1.379-0.616-1.379-1.379s0.616-1.38,1.379-1.38h5.518c0.763,0,1.379,0.617,1.379,1.38
	s-0.616,1.379-1.379,1.379H29.311z M40.247,74.117l-3.9,3.9c-0.27,0.269-0.622,0.404-0.976,0.404s-0.706-0.136-0.976-0.404
	c-0.539-0.54-0.539-1.41,0-1.951l3.901-3.899c0.539-0.539,1.411-0.539,1.95,0S40.784,73.58,40.247,74.117z M51.38,83.103
	c0,0.764-0.617,1.38-1.38,1.38s-1.38-0.616-1.38-1.38v-5.517c0-0.763,0.617-1.379,1.38-1.379s1.38,0.616,1.38,1.379V83.103z
	 M50,74.828c-6.845,0-12.414-5.569-12.414-12.414C37.586,55.568,43.155,50,50,50s12.414,5.568,12.414,12.414
	C62.414,69.259,56.845,74.828,50,74.828z M65.604,78.018c-0.27,0.269-0.622,0.404-0.976,0.404s-0.706-0.136-0.976-0.404l-3.9-3.9
	c-0.539-0.539-0.539-1.411,0-1.95s1.411-0.539,1.95,0l3.901,3.899C66.144,76.607,66.144,77.479,65.604,78.018z M70.689,63.793
	h-5.518c-0.763,0-1.379-0.616-1.379-1.379s0.616-1.38,1.379-1.38h5.518c0.763,0,1.379,0.617,1.379,1.38S71.452,63.793,70.689,63.793
	z"/>
</svg>
