<?xml version="1.0" encoding="utf-8"?>
<!-- Generator: Adobe Illustrator 16.0.0, SVG Export Plug-In . SVG Version: 6.00 Build 0)  -->
<!DOCTYPE svg PUBLIC "-//W3C//DTD SVG 1.1//EN" "http://www.w3.org/Graphics/SVG/1.1/DTD/svg11.dtd">
<svg version="1.1" id="Layer_1" xmlns="http://www.w3.org/2000/svg" xmlns:xlink="http://www.w3.org/1999/xlink" x="0px" y="0px"
	 width="30px" height="30px" viewBox="0 0 30 30" enable-background="new 0 0 30 30" xml:space="preserve">
<g>
	<path fill-rule="evenodd" clip-rule="evenodd" fill="#006699" d="M18.723,15.769c0.077-0.083,0.156-0.171,0.238-0.253
		c1.978-1.978,3.955-3.954,5.931-5.932c1.052-1.052,1.052-2.262-0.001-3.315c-0.426-0.427-0.85-0.856-1.279-1.278
		c-0.907-0.892-2.177-0.896-3.081,0.005c-2.021,2.011-4.033,4.03-6.05,6.046c-0.082,0.082-0.17,0.16-0.284,0.268
		c-0.394-1.053-0.456-2.08-0.206-3.129c0.227-0.95,0.685-1.773,1.373-2.465c0.998-1.003,1.993-2.008,3.001-3
		c2.083-2.051,5.352-2.044,7.427,0.008c0.507,0.501,1.014,1.003,1.512,1.512c2.011,2.05,2.027,5.304,0.024,7.355
		c-1.018,1.045-2.036,2.089-3.097,3.09c-1.496,1.41-3.264,1.791-5.237,1.232c-0.072-0.02-0.146-0.047-0.216-0.076
		C18.761,15.83,18.751,15.806,18.723,15.769z"/>
	<path fill-rule="evenodd" clip-rule="evenodd" fill="#006699" d="M11.354,14.307c-0.106,0.059-0.231,0.098-0.313,0.181
		c-1.98,1.973-3.957,3.95-5.933,5.928c-1.052,1.052-1.052,2.266-0.002,3.315c0.427,0.428,0.85,0.856,1.28,1.278
		c0.909,0.894,2.178,0.896,3.081-0.003c2.021-2.012,4.033-4.029,6.046-6.048c0.082-0.082,0.119-0.208,0.218-0.284
		c0.332,0.651,0.43,1.275,0.424,1.91c-0.012,1.406-0.487,2.642-1.477,3.653c-1.019,1.041-2.047,2.075-3.092,3.093
		c-2.045,1.992-5.286,1.985-7.331-0.005c-0.541-0.529-1.078-1.063-1.604-1.606c-1.958-2.026-1.966-5.26-0.005-7.283
		c1.023-1.054,2.053-2.104,3.12-3.113c1.495-1.414,3.262-1.789,5.235-1.236c0.091,0.025,0.176,0.069,0.265,0.104
		C11.296,14.229,11.325,14.268,11.354,14.307z"/>
	<path fill-rule="evenodd" clip-rule="evenodd" fill="#006699" d="M21.197,10.932c0.004,0.555-0.193,1.031-0.583,1.421
		c-2.734,2.737-5.468,5.479-8.213,8.208c-0.832,0.83-2.128,0.797-2.95-0.039c-0.813-0.826-0.833-2.102-0.011-2.928
		c2.722-2.735,5.452-5.464,8.187-8.188c0.651-0.648,1.433-0.772,2.275-0.439C20.698,9.283,21.199,10.069,21.197,10.932z"/>
</g>
</svg>
