<?xml version="1.0" encoding="utf-8"?>
<!-- Generator: Adobe Illustrator 16.0.0, SVG Export Plug-In . SVG Version: 6.00 Build 0)  -->
<!DOCTYPE svg PUBLIC "-//W3C//DTD SVG 1.1//EN" "http://www.w3.org/Graphics/SVG/1.1/DTD/svg11.dtd">
<svg version="1.1" id="Layer_1" xmlns="http://www.w3.org/2000/svg" xmlns:xlink="http://www.w3.org/1999/xlink" x="0px" y="0px"
	 width="96px" height="96px" viewBox="0 0 96 96" enable-background="new 0 0 96 96" xml:space="preserve">
<g>
	<path d="M91.6,21.781l-14.299-6.728L36.268,34.924v13.333l-6.844-3.5V31.425l40.768-19.716L58.293,6.11
		c-2.473-1.202-6.52-1.202-8.994,0l-34.307,15.67c-2.473,1.202-4.496,4.436-4.496,7.186v23.457c2.432-0.961,5.074-1.507,7.844-1.507
		c11.82,0,21.438,9.617,21.438,21.438c0,2.881-0.58,5.628-1.615,8.14l11.137,5.412c2.475,1.202,6.521,1.202,8.994,0L91.6,71.235
		c2.475-1.202,4.498-4.436,4.498-7.186V28.966C96.098,26.216,94.074,22.983,91.6,21.781z M83.324,36.112L89.705,43l-3.637,1.602
		l0.105,14.079l-5.064,2.23V46.8l-2.881,1.21L83.324,36.112z M65.883,44.3l6.381,6.887l-3.637,1.602l0.105,14.079l-5.064,2.23
		v-14.11l-2.881,1.21L65.883,44.3z M92.854,64.906L58.338,80.132v-3.301l34.516-15.214V64.906z"/>
	<path d="M18.34,53.917c-10.182,0-18.438,8.255-18.438,18.438S8.158,90.792,18.34,90.792c10.184,0,18.438-8.255,18.438-18.438
		S28.523,53.917,18.34,53.917z M29.375,67.016L17.809,80.453c-0.025,0.034-0.045,0.071-0.074,0.105
		c-0.396,0.462-0.945,0.717-1.508,0.756c-0.563,0.045-1.145-0.126-1.607-0.523c-0.033-0.029-0.059-0.064-0.09-0.095l-6.992-6.02
		c-0.92-0.791-1.023-2.178-0.232-3.097c0.793-0.919,2.178-1.023,3.098-0.232l5.428,4.671L26.047,64.15
		c0.791-0.919,2.178-1.023,3.098-0.232C30.063,64.71,30.166,66.097,29.375,67.016z"/>
</g>
</svg>
