<?xml version="1.0" encoding="utf-8"?>
<!-- Generator: Adobe Illustrator 16.0.0, SVG Export Plug-In . SVG Version: 6.00 Build 0)  -->
<!DOCTYPE svg PUBLIC "-//W3C//DTD SVG 1.1//EN" "http://www.w3.org/Graphics/SVG/1.1/DTD/svg11.dtd">
<svg version="1.1" id="Layer_1" xmlns="http://www.w3.org/2000/svg" xmlns:xlink="http://www.w3.org/1999/xlink" x="0px" y="0px"
	 width="96px" height="96px" viewBox="0 0 96 96" enable-background="new 0 0 96 96" xml:space="preserve">
<g>
	<path fill="#FFFFFF" d="M91.6,21.78l-14.299-6.728L36.268,34.924v13.334l-6.844-3.499V31.425l40.768-19.717L58.293,6.11
		c-2.473-1.202-6.52-1.202-8.994,0L14.992,21.78c-2.473,1.202-4.496,4.436-4.496,7.186v23.457c2.432-0.961,5.074-1.506,7.844-1.506
		c11.82,0,21.438,9.616,21.438,21.438c0,2.881-0.58,5.627-1.615,8.14l11.137,5.411c2.475,1.203,6.521,1.203,8.994,0L91.6,71.235
		c2.475-1.202,4.498-4.436,4.498-7.186V28.966C96.098,26.216,94.074,22.982,91.6,21.78z M83.324,36.112l6.381,6.887l-3.637,1.602
		l0.105,14.079l-5.064,2.23V46.8l-2.881,1.211L83.324,36.112z M65.883,44.3l6.381,6.887l-3.637,1.602l0.105,14.079l-5.064,2.23
		v-14.11l-2.881,1.211L65.883,44.3z M92.854,64.905L58.338,80.132v-3.301l34.516-15.215V64.905z"/>
	<path fill="#FFFFFF" d="M18.34,53.917c-10.182,0-18.438,8.254-18.438,18.438c0,10.182,8.256,18.438,18.438,18.438
		c10.184,0,18.438-8.256,18.438-18.438C36.777,62.171,28.523,53.917,18.34,53.917z M29.375,67.016L17.809,80.452
		c-0.025,0.035-0.045,0.072-0.074,0.105c-0.396,0.463-0.945,0.717-1.508,0.757c-0.563,0.045-1.145-0.126-1.607-0.523
		c-0.033-0.029-0.059-0.064-0.09-0.095l-6.992-6.02c-0.92-0.791-1.023-2.178-0.232-3.097c0.793-0.919,2.178-1.023,3.098-0.231
		l5.428,4.671L26.047,64.15c0.791-0.919,2.178-1.022,3.098-0.231C30.063,64.71,30.166,66.097,29.375,67.016z"/>
</g>
</svg>
