<?xml version="1.0" encoding="utf-8"?>
<!-- Generator: Adobe Illustrator 16.0.0, SVG Export Plug-In . SVG Version: 6.00 Build 0)  -->
<!DOCTYPE svg PUBLIC "-//W3C//DTD SVG 1.1//EN" "http://www.w3.org/Graphics/SVG/1.1/DTD/svg11.dtd">
<svg version="1.1" id="Layer_1" xmlns="http://www.w3.org/2000/svg" xmlns:xlink="http://www.w3.org/1999/xlink" x="0px" y="0px"
	 width="96px" height="96px" viewBox="0 0 96 96" enable-background="new 0 0 96 96" xml:space="preserve">
<g>
	<path d="M20.241,60.717H5.25H3.959H0.375v6.166h3.584H5.25h11.658C17.316,64.465,18.519,62.318,20.241,60.717z"/>
	<path d="M27.661,59.784c-4.925,0-8.917,3.992-8.917,8.917c0,4.924,3.992,8.916,8.917,8.916c4.924,0,8.916-3.992,8.916-8.916
		C36.577,63.776,32.585,59.784,27.661,59.784z M27.661,74.617c-3.263,0-5.917-2.654-5.917-5.916c0-3.263,2.654-5.917,5.917-5.917
		c3.262,0,5.916,2.654,5.916,5.917C33.577,71.963,30.923,74.617,27.661,74.617z"/>
	<path d="M72.495,59.784c-4.925,0-8.917,3.992-8.917,8.917c0,4.924,3.992,8.916,8.917,8.916c4.924,0,8.916-3.992,8.916-8.916
		C81.411,63.776,77.419,59.784,72.495,59.784z M72.495,74.617c-3.263,0-5.917-2.654-5.917-5.916c0-3.263,2.654-5.917,5.917-5.917
		c3.262,0,5.916,2.654,5.916,5.917C78.411,71.963,75.757,74.617,72.495,74.617z"/>
	<path d="M95.613,63.24v-2.857h-4.779h-0.042V43.049c0-1.649-0.761-4.115-1.691-5.478L78.15,21.527
		c-0.931-1.363-3.041-2.478-4.691-2.478H59.792c-1.65,0-3,1.35-3,3v35.667c0,1.649-1.35,3-3,3H35.08
		c1.723,1.602,2.925,3.748,3.333,6.166h23.329c0.87-5.155,5.354-9.099,10.753-9.099s9.882,3.943,10.752,9.099h6.565h2.813h2.988
		v-2.885c0.002-0.039,0.012-0.076,0.012-0.115v-0.5C95.625,63.334,95.615,63.288,95.613,63.24z M61.526,35.542V23.056h11.77
		c0.569,0,1.584,0.536,1.905,1.007l7.836,11.479H61.526z"/>
	<path d="M25.376,34.549c0,1.1-0.9,2-2,2H2.375c-1.1,0-2-0.9-2-2V20.383c0-1.1,0.9-2,2-2h21.001c1.1,0,2,0.9,2,2V34.549z"/>
	<path d="M52.661,34.549c0,1.1-0.9,2-2,2H29.66c-1.1,0-2-0.9-2-2V20.383c0-1.1,0.9-2,2-2h21.001c1.1,0,2,0.9,2,2V34.549z"/>
	<path d="M52.661,55.467c0,1.1-0.9,2-2,2H2.375c-1.1,0-2-0.9-2-2V41.3c0-1.1,0.9-2,2-2h48.286c1.1,0,2,0.9,2,2V55.467z"/>
</g>
</svg>
