<?xml version="1.0" encoding="utf-8"?>
<!-- Generator: Adobe Illustrator 16.0.0, SVG Export Plug-In . SVG Version: 6.00 Build 0)  -->
<!DOCTYPE svg PUBLIC "-//W3C//DTD SVG 1.1//EN" "http://www.w3.org/Graphics/SVG/1.1/DTD/svg11.dtd">
<svg version="1.1" id="Layer_1" xmlns="http://www.w3.org/2000/svg" xmlns:xlink="http://www.w3.org/1999/xlink" x="0px" y="0px"
	 width="30px" height="30px" viewBox="85 85 30 30" enable-background="new 85 85 30 30" xml:space="preserve">
<g>
	<path fill="#0075B1" d="M106.968,101.871c0.328,0,0.594-0.267,0.594-0.594s-0.266-0.594-0.594-0.594
		c-0.327,0-0.593,0.267-0.593,0.594S106.641,101.871,106.968,101.871z"/>
	<path fill="#0075B1" d="M98.725,92.875c0.327,0,0.594-0.266,0.594-0.593c0-0.328-0.267-0.595-0.594-0.595s-0.594,0.267-0.594,0.595
		C98.131,92.609,98.397,92.875,98.725,92.875z"/>
	<path fill="#0075B1" d="M104.805,91.235c0.328,0,0.595-0.267,0.595-0.594s-0.267-0.594-0.595-0.594
		c-0.326,0-0.593,0.267-0.593,0.594S104.479,91.235,104.805,91.235z"/>
	<path fill="#0075B1" d="M109.081,94.185c-0.328,0-0.594,0.267-0.594,0.594s0.266,0.594,0.594,0.594
		c0.327,0,0.593-0.266,0.593-0.594C109.674,94.451,109.408,94.185,109.081,94.185z"/>
	<path fill="#0075B1" d="M100,85c-8.284,0-15,6.716-15,15s6.716,15,15,15s15-6.716,15-15S108.284,85,100,85z M109.081,96.348
		c-0.313,0-0.605-0.094-0.85-0.252c-3.365,1.573-8.696,6.664-10.403,8.341l0.396,0.396c2.726-3.003,6.35-3.955,7.296-4.159
		c0.236-0.566,0.796-0.965,1.447-0.965c0.865,0,1.568,0.704,1.568,1.568c0,0.865-0.703,1.568-1.568,1.568
		c-0.48,0-0.912-0.218-1.2-0.561c-0.919,0.217-4.083,1.12-6.393,3.699l1.472,1.472l-3.471,3.471l-0.766-0.766l2.705-2.705
		l-6.494-6.493l-2.705,2.704l-0.766-0.766l3.471-3.472l0.89,0.89c2.441-2.271,3.585-5.548,3.968-6.872
		c-0.32-0.287-0.522-0.703-0.522-1.165c0-0.866,0.703-1.569,1.568-1.569s1.568,0.703,1.568,1.569c0,0.666-0.419,1.235-1.007,1.463
		c-0.379,1.383-1.604,5.079-4.425,7.725l0.416,0.416c3.924-3.762,7.267-8.935,8.192-10.425c-0.146-0.238-0.233-0.519-0.233-0.819
		c0-0.865,0.704-1.569,1.568-1.569c0.866,0,1.57,0.704,1.57,1.569c0,0.825-0.643,1.502-1.452,1.563
		c-0.857,1.395-4.297,6.802-8.495,10.832l0.25,0.251c1.749-1.725,7.197-6.935,10.841-8.653c0.073-0.798,0.746-1.424,1.563-1.424
		c0.864,0,1.568,0.703,1.568,1.568C110.649,95.645,109.945,96.348,109.081,96.348z"/>
</g>
</svg>
