<?xml version="1.0" encoding="utf-8"?>
<!-- Generator: Adobe Illustrator 21.1.0, SVG Export Plug-In . SVG Version: 6.00 Build 0)  -->
<svg version="1.1" id="Layer_1" xmlns="http://www.w3.org/2000/svg" xmlns:xlink="http://www.w3.org/1999/xlink" x="0px" y="0px"
	 width="30px" height="30px" viewBox="0 0 30 30" style="enable-background:new 0 0 30 30;" xml:space="preserve">
<style type="text/css">
	.st0{fill:#FFFFFF;}
</style>
<g>
	<g>
		<g>
			<path class="st0" d="M25.8,6.5H4.2c-1.5,0-2.6,1.2-2.6,2.6v11.7c0,1.5,1.2,2.6,2.6,2.6h21.6c1.5,0,2.6-1.2,2.6-2.6V9.1
				C28.4,7.7,27.2,6.5,25.8,6.5z M4.2,8h21.6c0.6,0,1.1,0.5,1.1,1.1v1.4H3.1V9.1C3.1,8.5,3.6,8,4.2,8z M25.8,22H4.2
				c-0.6,0-1.1-0.5-1.1-1.1v-7.2h23.8v7.2C26.9,21.5,26.4,22,25.8,22z"/>
			<rect x="4.9" y="19.8" class="st0" width="1.6" height="1"/>
			<rect x="7.5" y="19.8" class="st0" width="1.6" height="1"/>
			<rect x="9.9" y="19.8" class="st0" width="1.6" height="1"/>
		</g>
	</g>
</g>
</svg>
