<?xml version="1.0" encoding="utf-8"?>
<!-- Generator: Adobe Illustrator 21.1.0, SVG Export Plug-In . SVG Version: 6.00 Build 0)  -->
<svg version="1.1" id="Layer_1" xmlns="http://www.w3.org/2000/svg" xmlns:xlink="http://www.w3.org/1999/xlink" x="0px" y="0px"
	 width="32px" height="16.5px" viewBox="0 0 32 16.5" style="enable-background:new 0 0 32 16.5;" xml:space="preserve">
<style type="text/css">
	.st0{fill:#71D456;}
	.st1{fill:#FCFCFD;}
</style>
<title>cash</title>
<g>
	<rect class="st0" width="32" height="16.5"/>
	<path class="st1" d="M27.5,14.9h-23c0-1.5-1.2-2.7-2.7-2.7c0,0,0,0,0,0v-8c1.5,0,2.7-1.2,2.7-2.7h23c0,1.5,1.2,2.7,2.7,2.7l0,0v8
		C28.7,12.3,27.6,13.4,27.5,14.9z"/>
	<g>
		<circle class="st0" cx="16" cy="8.2" r="5.5"/>
		<circle class="st0" cx="5.7" cy="8.2" r="1.3"/>
		<circle class="st0" cx="26.3" cy="8.2" r="1.3"/>
	</g>
</g>
<g>
	<path class="st1" d="M16.6,4.1v6.8l0.7,0.6h-2.5l0.7-0.6V5.8c-0.2,0.1-0.5,0.2-0.7,0.2c-0.4,0-0.6-0.1-0.8-0.4h0
		c0.2,0.2,0.5,0.3,0.8,0.3c0.3,0,0.5-0.1,0.7-0.2V5.2c-0.3,0.2-0.6,0.3-0.9,0.3c-0.2,0-0.4,0-0.5-0.1S14,5.2,14,5
		c0-0.2,0.1-0.3,0.3-0.3c0.2,0,0.2,0.1,0.2,0.2c0,0,0,0.1,0,0.1c0,0,0,0,0,0c0,0.1,0.1,0.1,0.2,0.1c0.3,0,0.5-0.1,0.8-0.3
		s0.4-0.5,0.6-0.8H16.6z M16.9,4.2l0.2,0.1v6.6L18,12h-3l-0.1-0.2h2.8L16.9,11V4.2z"/>
</g>
</svg>
