<?xml version="1.0" encoding="utf-8"?>
<!-- Generator: Adobe Illustrator 16.0.0, SVG Export Plug-In . SVG Version: 6.00 Build 0)  -->
<!DOCTYPE svg PUBLIC "-//W3C//DTD SVG 1.1//EN" "http://www.w3.org/Graphics/SVG/1.1/DTD/svg11.dtd">
<svg version="1.1" id="Layer_1" xmlns="http://www.w3.org/2000/svg" xmlns:xlink="http://www.w3.org/1999/xlink" x="0px" y="0px"
	 width="30px" height="30px" viewBox="0 0 30 30" enable-background="new 0 0 30 30" xml:space="preserve">
<g>
	<circle fill="#FFFFFF" cx="15" cy="15" r="14.132"/>
	<path fill="#0075B1" d="M15,27.875c-1.74,0-3.424-0.336-5.012-1.008c-1.533-0.65-2.912-1.578-4.095-2.761
		c-1.182-1.182-2.111-2.562-2.761-4.095C2.463,18.426,2.122,16.738,2.122,15c0-1.74,0.341-3.427,1.011-5.012
		c0.649-1.533,1.579-2.912,2.761-4.094c1.183-1.183,2.562-2.112,4.095-2.76C11.576,2.463,13.26,2.122,15,2.122
		s3.426,0.341,5.012,1.013c1.532,0.647,2.912,1.577,4.095,2.76c1.182,1.182,2.111,2.561,2.761,4.094
		c0.67,1.585,1.012,3.271,1.012,5.012c0,1.738-0.342,3.426-1.012,5.012c-0.649,1.533-1.579,2.913-2.761,4.095
		c-1.183,1.183-2.563,2.11-4.095,2.761C18.426,27.539,16.74,27.875,15,27.875z"/>
	<polygon fill="#FFFFFF" points="15,1.736 12.188,1.736 15,5.961 17.813,1.736 	"/>
	<g>
		<defs>
			<path id="SVGID_1_" d="M15,27.522c-1.691,0-3.33-0.328-4.873-0.98c-1.492-0.633-2.834-1.535-3.983-2.685
				c-1.15-1.15-2.054-2.491-2.686-3.983C2.806,18.332,2.475,16.691,2.475,15s0.331-3.333,0.983-4.873
				C4.09,8.635,4.993,7.293,6.144,6.144c1.149-1.15,2.491-2.054,3.983-2.685C11.67,2.807,13.309,2.475,15,2.475
				c1.692,0,3.332,0.332,4.874,0.984c1.491,0.631,2.833,1.534,3.983,2.685c1.149,1.149,2.053,2.491,2.685,3.983
				c0.652,1.54,0.983,3.182,0.983,4.873s-0.331,3.332-0.983,4.874c-0.632,1.492-1.535,2.833-2.685,3.983
				c-1.15,1.149-2.492,2.052-3.983,2.685C18.332,27.194,16.692,27.522,15,27.522z"/>
		</defs>
		<clipPath id="SVGID_2_">
			<use xlink:href="#SVGID_1_"  overflow="visible"/>
		</clipPath>
		<g clip-path="url(#SVGID_2_)">
			<path fill="#FFFFFF" d="M15.002,20.246c-3.734,0-6.773-3.037-6.773-6.769s3.039-6.771,6.773-6.771c3.732,0,6.77,3.039,6.77,6.771
				S18.734,20.246,15.002,20.246z"/>
			<path fill="#FFFFFF" d="M18.532,21.549c-0.153,1.346-1.676,2.398-3.532,2.398s-3.379-1.053-3.531-2.398
				c-6.021,1.172-6.021,5.4-6.021,7.198h19.104C24.552,26.949,24.552,22.721,18.532,21.549z"/>
		</g>
	</g>
</g>
</svg>
