<?xml version="1.0" encoding="utf-8"?>
<!-- Generator: Adobe Illustrator 21.1.0, SVG Export Plug-In . SVG Version: 6.00 Build 0)  -->
<svg version="1.1" id="Layer_1" xmlns="http://www.w3.org/2000/svg" xmlns:xlink="http://www.w3.org/1999/xlink" x="0px" y="0px"
	 width="50px" height="50px" viewBox="0 0 50 50" style="enable-background:new 0 0 50 50;" xml:space="preserve">
<style type="text/css">
	.st0{fill-rule:evenodd;clip-rule:evenodd;}
	.st1{fill:#009345;}
	.st2{fill:#F7931E;}
	.st3{fill:#999999;}
</style>
<path class="st0" d="M-42.6,24.6"/>
<g>
	<path class="st1" d="M-37.6,25.8c-0.1-0.9-0.5-2.2-1.2-3.2c-1.1-1.8-4.1-4-7.8-3.5c-1.2,0.1-2,0.4-2.7,0.7c-2.2,1.1-3.8,3.1-4.3,6
		c-0.3,1.9,0.3,4.2,1,5.3c1.3,2.2,3.9,4,7.2,3.9C-40.9,34.9-37,31-37.6,25.8z M-41.3,21.2C-41.5,21.5-41.9,21.1-41.3,21.2
		L-41.3,21.2z M-44,22c0.1,0,0.1,0,0.2,0c0,0.1,0,0.1,0,0.2c-0.1,0-0.1,0-0.2,0C-44,22.1-44,22.1-44,22z M-44.1,22.4
		c-0.3,0.5-0.3-0.2-0.5-0.2c0-0.1,0-0.2,0-0.3C-44.4,22-44.5,22.4-44.1,22.4z M-44.6,20.3c0,0.3-0.8,0.3-0.6,0.5
		c-0.8,0.1-1.2,0.5-1.9,0.7c-0.3-0.3-0.1-0.4,0.1-0.7c0-0.3-0.3-0.3-0.5-0.4C-46.7,20.2-45.7,20.2-44.6,20.3z M-45,21.2
		C-44.5,20.9-44.6,21.5-45,21.2L-45,21.2z M-44.9,22.5c-0.2,0,0-0.4,0.2-0.3C-44.7,22.4-44.9,22.3-44.9,22.5z M-47.7,20.2
		c0.2,0.2-0.8,0.1-1,0.2C-48.8,20.3-48.1,20.2-47.7,20.2z M-48.1,21.1c-0.5-0.1-0.4,0.3-0.9,0.2c0-0.3,0.4-0.1,0.4-0.3
		c-0.1-0.2-0.3-0.2-0.6-0.2C-49,20.6-48.1,20.6-48.1,21.1z M-50.1,21c0.2-0.1,0.2,0,0.7-0.1c0.4,0.1-0.6,0.2-0.3,0.3
		c-0.1,0.2-0.8-0.1-0.9,0.3C-50.7,21.3-50.2,21.1-50.1,21z M-51,21.8c0.3,0.1,0.7,0.1,0.7,0.6c0.8,0,0.6-1,1.4-1
		c0.2,0.2,0,0.1,0,0.4c0.2,0,0.4,0,0.4-0.2c0.3,0,0.1,0.6,0.5,0.5c-0.2,0.5-1.2,0.2-1.5,0.6c0.1,0.2,0.3-0.2,0.5-0.1
		c-0.1,0.1-0.1,0.2,0.1,0.3c-0.3,0.2-1.1,0.3-1.6,0.8c0,0,0.1,0.2,0,0.3c-0.3,0.3-0.9,0.4-0.8,1.1c-0.1,0.3-0.1-0.3-0.1-0.4
		c-0.5-0.1-0.8,0.1-1.3,0.1C-52.4,23.6-51.7,22.7-51,21.8z M-48.1,22.5c0,0.1,0,0.1,0,0.2c-0.1,0-0.3,0-0.4,0c0-0.1,0.2-0.2,0.2-0.3
		C-48.2,22.4-48.2,22.5-48.1,22.5z M-50.7,25.8c0.2,0,0.3,0.1,0.4,0.1C-50.3,26.1-50.9,26.1-50.7,25.8z M-47.5,31.2
		c-0.3,0-0.4,0.1-0.6,0.2c0.1,0.6-0.2,0.9-0.4,1.2c-0.1-0.1-0.2-0.1-0.4-0.1c0.1,0.1,0.2,0.2,0.3,0.3c-0.2,0.3-0.7,0.3-0.6,0.8
		c-2.3-1.4-4-3.4-3.8-7.4c0.5,0.1,0.4-0.4,0.9-0.4c0,0.3-0.3,0.3-0.3,0.6c0,0.2,0.3,0,0.5,0.1c0,0.2,0,0.4,0,0.6
		c0.4,0.5,0.8,0.1,1.2-0.1c0,0.1,0,0.2,0,0.3c0.1,0,0.1-0.2,0.1-0.3c1,0,1.4,0.7,2.1,1c0.1,0.3-0.1,0.5-0.1,0.7
		c0.3-0.3,1,0.2,1.7,0.5C-47.2,29.9-47.4,30.3-47.5,31.2z M-39.9,31.6c-0.1-0.7,0.3-1,0.6-1.4C-39,30.3-39.4,31.6-39.9,31.6z
		 M-39.7,26.9c-0.1-0.9-0.8-1.2-1-2c-0.1,0.1-0.2,0.1-0.3-0.1c0.2,0.7,0.9,1.7,1.4,2.5c0.3,0.1,0.4-0.1,0.7-0.1c0,1.1-1,1.3-1.3,2.2
		c0.2,0.4,0.1,0.7,0.1,1.3c-0.3,0.1-0.4,0.4-0.7,0.5c0,0.2,0.1,0.2,0.1,0.4c-0.6,0.5-0.6,1.5-1.8,1.4c0-0.7-0.9-2.1-0.3-2.9
		c-0.1-0.5-0.2-1-0.5-1.3c0-0.2,0.2-0.3,0.1-0.6c0-0.3-0.5-0.1-0.6-0.4c-1.9,1.1-3-2.1-1.4-2.9c-0.1-0.5,0.3-0.5,0.4-0.8
		c0.4,0.2,0.8-0.3,1.5-0.1c-0.1,0.7,0.7,0.4,0.9,0.8c0.1-0.1,0.1-0.2,0.2-0.3c0.4,0.1,0.7,0.3,1.3,0.2c0.1-0.1,0.1-0.3,0.2-0.5
		c-0.2-0.4-1,0.2-1-0.6c-0.2,0-0.5-0.1-0.4,0.2c-0.3-0.2-0.5-0.6-1-0.8c-0.1,0.5,0.4,0.3,0.4,0.7c-0.6-0.8-1.5-0.4-1.9,0.3
		c-0.5,0.1-0.6-0.2-0.5-0.7c0.2,0,0.5,0,0.7,0c0-0.1,0-0.2,0.1-0.2c0-0.2-0.1-0.3-0.3-0.3c0.6-0.3,1-0.7,2-0.6
		c0.2-0.3,0.1-0.4,0.7-0.4c-0.1-0.3-0.4-0.1-0.6-0.1c-0.3-0.2,0.3-0.3,0-0.5c-0.5,0.2-0.4,0.4-0.5,0.8c-0.4-0.1-0.5-0.3-0.9-0.3
		c0.4-0.6,1.2-0.9,2.1-0.7c0,0.2,0.1,0.3,0.1,0.4c0.4,0.1,0.6-0.2,0.9-0.2c1.4,0.8,2.2,2.3,2.6,4.1c-0.4-0.2-0.8-0.3-1.1-0.6
		c-0.3,0.3,0.3,0.5,0.3,0.8c0.6-0.2,0.5-0.1,0.9,0.2C-38.4,26.5-38.9,26.8-39.7,26.9z"/>
	<path class="st1" d="M-40.4,23.7c0.1-0.5-0.7-0.3-0.3-0.7c-0.2,0.1-0.4,0.1-0.8,0.1c-0.2,0.1-0.2,0.3-0.2,0.6
		C-41.1,23.6-40.9,23.6-40.4,23.7z"/>
</g>
<g>
	<path class="st2" d="M47.8,21.7c-0.3-2.6-1.4-6.2-3.4-9.3C41.2,7.2,32.7,1.1,22.2,2.3c-3.4,0.4-5.7,1-7.6,2
		c-6.3,3.1-11,8.9-12.4,17.2c-0.9,5.5,0.9,12,2.8,15.2c3.7,6.2,11,11.5,20.5,11.3C38.3,47.6,49.5,36.4,47.8,21.7z M37.1,8.5
		C36.5,9.3,35.3,8.1,37.1,8.5L37.1,8.5z M29.3,10.7c0.2,0,0.4,0,0.6,0c0,0.2,0,0.4,0,0.6c-0.2,0-0.4,0-0.6,0
		C29.3,11.1,29.3,10.9,29.3,10.7z M29,11.8c-0.9,1.5-0.8-0.7-1.4-0.6c0-0.3,0-0.6,0-0.8C28.2,10.7,28,11.8,29,11.8z M27.6,5.9
		c0.1,1-2.3,0.9-1.7,1.4c-2.3,0.2-3.4,1.5-5.3,2c-0.8-0.9-0.3-1.2,0.3-2c-0.1-0.8-0.8-0.9-1.4-1.1C21.7,5.6,24.6,5.5,27.6,5.9z
		 M26.4,8.5C28.1,7.5,27.7,9.2,26.4,8.5L26.4,8.5z M26.7,12.1c-0.5,0.1,0-1.1,0.6-0.8C27.4,11.9,26.8,11.7,26.7,12.1z M18.8,5.7
		c0.4,0.5-2.2,0.2-2.8,0.6C15.7,5.8,17.8,5.6,18.8,5.7z M17.7,8.2c-1.3-0.3-1.2,0.9-2.5,0.6c-0.1-0.8,1-0.3,1.1-0.8
		c-0.3-0.5-0.9-0.6-1.7-0.6C15,6.6,17.8,6.8,17.7,8.2z M12.1,7.9c0.7-0.4,0.6,0.1,2-0.3c1.1,0.4-1.8,0.5-0.8,0.8
		c-0.4,0.4-2.2-0.3-2.5,0.8C10.1,8.8,11.6,8.2,12.1,7.9z M9.3,10.2c0.9,0.4,2.1,0.3,2,1.7c2.2,0,1.6-2.9,3.9-2.8
		c0.5,0.6,0,0.4,0,1.1c0.6,0.1,1.1-0.1,1.1-0.6c0.9,0,0.2,1.7,1.4,1.4c-0.7,1.3-3.4,0.6-4.2,1.7c0.2,0.7,0.8-0.5,1.4-0.3
		c-0.3,0.4-0.3,0.7,0.3,0.8c-0.9,0.5-3.2,0.8-4.5,2.3c-0.1,0.1,0.1,0.7,0,0.8c-0.9,0.9-2.5,1-2.3,3.1c-0.3,0.9-0.3-0.8-0.3-1.1
		c-1.5-0.2-2.3,0.3-3.7,0.3C5.5,15.2,7.3,12.6,9.3,10.2z M17.7,12.1c0,0.2,0,0.4,0,0.6c-0.4,0-0.8,0-1.1,0c0.1-0.4,0.5-0.4,0.6-0.8
		C17.4,11.9,17.4,12.1,17.7,12.1z M10.1,21.7c0.6-0.1,0.7,0.2,1.1,0.3C11.3,22.5,9.7,22.5,10.1,21.7z M19.4,36.9
		c-0.9-0.1-1.1,0.4-1.7,0.6c0.2,1.7-0.4,2.6-1.1,3.4c-0.3-0.2-0.6-0.3-1.1-0.3c0.3,0.3,0.6,0.6,0.8,0.8c-0.5,0.8-1.9,0.8-1.7,2.3
		c-6.7-4-11.5-9.9-11-21.1c1.4,0.2,1.2-1.2,2.5-1.1c-0.1,0.7-0.8,0.8-0.8,1.7c0,0.6,1,0.1,1.4,0.3c0,0.6,0,1.1,0,1.7
		c1.2,1.5,2.2,0.2,3.4-0.3c0,0.3,0,0.6,0,0.8c0.3,0,0.2-0.5,0.3-0.8c2.9,0.1,3.9,2,5.9,2.8c0.2,0.9-0.2,1.3-0.3,2
		c0.7-0.9,2.9,0.6,4.8,1.4C20.2,33.4,19.8,34.4,19.4,36.9z M41.1,38c-0.2-2.1,1-2.8,1.7-3.9C43.7,34.3,42.5,38.2,41.1,38z
		 M41.6,24.8c-0.3-2.5-2.2-3.5-2.8-5.6c-0.4,0.3-0.7,0.3-0.8-0.3c0.5,2,2.5,5,3.9,7c1,0.2,1.1-0.4,2-0.3c-0.1,3.2-2.8,3.8-3.7,6.2
		c0.6,1.3,0.4,2.1,0.3,3.7c-0.9,0.2-1.2,1-2,1.4c0,0.5,0.3,0.6,0.3,1.1c-1.7,1.3-1.9,4.1-5.1,3.9c-0.1-2-2.6-5.9-0.8-8.2
		c-0.3-1.4-0.6-2.8-1.4-3.7c0-0.7,0.5-0.8,0.3-1.7c-0.1-0.8-1.5-0.3-1.7-1.1c-5.4,3.3-8.5-6-3.9-8.2c-0.3-1.4,0.8-1.4,1.1-2.3
		c1.2,0.7,2.4-0.7,4.2-0.3c-0.4,2,1.9,1.3,2.5,2.3c0.3-0.2,0.4-0.5,0.6-0.8c1.1,0.3,2.1,0.8,3.7,0.6c0.4-0.2,0.4-0.9,0.6-1.4
		C38.3,16,36,17.8,36,15.5c-0.5,0.1-1.4-0.3-1.1,0.6c-1-0.7-1.6-1.8-2.8-2.3c-0.3,1.4,1.1,0.9,1.1,2c-1.6-2.2-4.3-1.2-5.3,0.8
		c-1.3,0.2-1.6-0.7-1.4-2c0.7,0,1.3,0,2,0c0-0.3,0.1-0.5,0.3-0.6c0.1-0.6-0.2-0.9-0.8-0.8c1.7-0.8,2.8-2.1,5.6-1.7
		c0.6-0.8,0.4-1,2-1.1c-0.2-0.9-1.1-0.4-1.7-0.3c-0.7-0.7,0.7-0.8,0-1.4c-1.4,0.5-1.2,1-1.4,2.3c-1.2-0.4-1.4-0.8-2.5-0.8
		c1-1.7,3.4-2.6,5.9-2c-0.1,0.6,0.2,0.7,0.3,1.1c1.3,0.3,1.6-0.5,2.5-0.6c4,2.4,6.2,6.6,7.3,11.8c-1.1-0.5-2.4-0.8-3.1-1.7
		c-0.9,0.9,0.8,1.4,0.8,2.3c1.7-0.5,1.3-0.3,2.5,0.6C45.5,23.6,43.9,24.5,41.6,24.8z"/>
	<path class="st2" d="M39.7,15.5c0.4-1.4-1.9-0.8-0.8-2c-0.7,0.2-1.3,0.4-2.3,0.3c-0.5,0.3-0.6,0.9-0.6,1.7
		C37.6,15.4,38.2,15.2,39.7,15.5z"/>
</g>
<g>
	<path class="st3" d="M89.3,8c0.5,0,1,0.1,1.5,0.2c0,0,0,0,0,0l2.2-2.2c-2.6-1.7-5.7-3-9.2-3.6L89.3,8z"/>
	<path class="st3" d="M102.8,21.7c-0.3-2.6-1.4-6.2-3.4-9.3c-0.4-0.7-0.9-1.4-1.5-2l-1.2,1.2c1.8,2.1,3,4.7,3.8,7.8l0.8,0.8l-1,1
		c0.2,0.1,0.4,0.3,0.8,0.6c-0.6,1.9-2.2,2.8-4.4,3.1l0,0l0,0c0,0,0,0,0,0c0,0,0,0,0,0l-1.5-1.5c0.6,0.9,1.2,1.9,1.8,2.6
		c1,0.2,1.1-0.4,2-0.3c-0.1,3.2-2.8,3.8-3.7,6.2c0.6,1.3,0.4,2.1,0.3,3.7c-0.9,0.2-1.2,1-2,1.4c0,0.5,0.3,0.6,0.3,1.1
		c-1.7,1.3-1.9,4.1-5.1,3.9c-0.1-2-2.6-5.9-0.8-8.2c-0.3-1.4-0.6-2.8-1.4-3.7c0-0.7,0.5-0.8,0.3-1.7c-0.1-0.8-1.5-0.3-1.7-1.1
		c-4.5,2.7-7.4-3.2-5.6-6.6l-0.7-0.7l3.5-3.5c-0.8-0.1-1-0.9-0.9-2c0.7,0,1.3,0,2,0c0-0.3,0.1-0.5,0.3-0.6c0.1-0.6-0.2-0.9-0.8-0.8
		c0.5-0.2,1-0.5,1.5-0.8L83.9,12c-0.8,1.2-0.7-0.8-1.3-0.7c0-0.2,0-0.4,0-0.6l-3.1-3.1c-1.4,0.5-2.5,1.3-4,1.7
		c-0.8-0.9-0.3-1.2,0.3-2c-0.1-0.8-0.8-0.9-1.4-1.1c1.7-0.4,3.6-0.6,5.7-0.5l3.3-3.3c-2-0.3-4-0.4-6.2-0.1c-3.4,0.4-5.7,1-7.6,2
		c-6.3,3.1-11,8.9-12.4,17.2c-0.9,5.5,0.9,12,2.8,15.2c3.7,6.2,11,11.5,20.5,11.3C93.3,47.6,104.5,36.4,102.8,21.7z M82.3,11.3
		c0.2,0.6-0.5,0.4-0.6,0.8C81.2,12.2,81.7,11,82.3,11.3z M73.8,5.7c0.4,0.5-2.2,0.2-2.8,0.6C70.7,5.8,72.8,5.6,73.8,5.7z M72.7,8.2
		c-1.3-0.3-1.2,0.9-2.5,0.6c-0.1-0.8,1-0.3,1.1-0.8c-0.3-0.5-0.9-0.6-1.7-0.6C70,6.6,72.8,6.8,72.7,8.2z M67.1,7.9
		c0.7-0.4,0.6,0.1,2-0.3c1.1,0.4-1.8,0.5-0.8,0.8c-0.4,0.4-2.2-0.3-2.5,0.8C65.1,8.8,66.6,8.2,67.1,7.9z M64.3,10.2
		c0.9,0.4,2.1,0.3,2,1.7c2.2,0,1.6-2.9,3.9-2.8c0.5,0.6,0,0.4,0,1.1c0.6,0.1,1.1-0.1,1.1-0.6c0.9,0,0.2,1.7,1.4,1.4
		c-0.7,1.3-3.4,0.6-4.2,1.7c0.2,0.7,0.8-0.5,1.4-0.3c-0.3,0.4-0.3,0.7,0.3,0.8c-0.9,0.5-3.2,0.8-4.5,2.3c-0.1,0.1,0.1,0.7,0,0.8
		c-0.9,0.9-2.5,1-2.3,3.1c-0.3,0.9-0.3-0.8-0.3-1.1c-1.5-0.2-2.3,0.3-3.7,0.3C60.5,15.2,62.3,12.6,64.3,10.2z M72.7,12.1
		c0,0.2,0,0.4,0,0.6c-0.4,0-0.8,0-1.1,0c0.1-0.4,0.5-0.4,0.6-0.8C72.4,11.9,72.4,12.1,72.7,12.1z M66.2,22c0.1,0.5-1.6,0.5-1.1-0.3
		C65.7,21.6,65.9,21.9,66.2,22z M74.4,36.9c-0.9-0.1-1.1,0.4-1.7,0.6c0.2,1.7-0.4,2.6-1.1,3.4c-0.3-0.2-0.6-0.3-1.1-0.3
		c0.3,0.3,0.6,0.6,0.8,0.8c-0.5,0.8-1.9,0.8-1.7,2.3c-6.7-4-11.5-9.9-11-21.1c1.4,0.2,1.2-1.2,2.5-1.1c-0.1,0.7-0.8,0.8-0.8,1.7
		c0,0.6,1,0.1,1.4,0.3c0,0.6,0,1.1,0,1.7c1.2,1.5,2.2,0.2,3.4-0.3c0,0.3,0,0.6,0,0.8c0.3,0,0.2-0.5,0.3-0.8c2.9,0.1,3.9,2,5.9,2.8
		c0.2,0.9-0.2,1.3-0.3,2c0.7-0.9,2.9,0.6,4.8,1.4C75.2,33.4,74.8,34.4,74.4,36.9z M96.1,38c-0.2-2.1,1-2.8,1.7-3.9
		C98.7,34.3,97.5,38.2,96.1,38z"/>
	<path class="st3" d="M83.7,11.8l-0.5-0.5C83.3,11.5,83.5,11.7,83.7,11.8z"/>
</g>
<polygon class="st3" points="99.7,7 96.7,4 90.1,10.6 83.5,4 80.5,7 87.1,13.5 80.5,20.1 83.5,23.1 90.1,16.5 96.7,23.1 99.7,20.1 
	93.1,13.5 "/>
</svg>
