<?xml version="1.0" encoding="utf-8"?>
<!-- Generator: Adobe Illustrator 16.0.0, SVG Export Plug-In . SVG Version: 6.00 Build 0)  -->
<!DOCTYPE svg PUBLIC "-//W3C//DTD SVG 1.1//EN" "http://www.w3.org/Graphics/SVG/1.1/DTD/svg11.dtd">
<svg version="1.1" id="Layer_1" xmlns="http://www.w3.org/2000/svg" xmlns:xlink="http://www.w3.org/1999/xlink" x="0px" y="0px"
	 width="30px" height="30px" viewBox="0 0 30 30" enable-background="new 0 0 30 30" xml:space="preserve">
<path fill="#FFFFFF" d="M28.737,12.717l-13.68-8.669L8.464,8.219V5.053c0-0.469-0.371-0.849-0.84-0.849
	c-0.463,0-0.84,0.38-0.84,0.849v4.235l-5.522,3.496c-0.397,0.245-0.512,0.772-0.263,1.171C1.161,14.2,1.434,14.35,1.706,14.35
	c0.156,0,0.313-0.051,0.454-0.131l1.128-0.717v12.45h9.404V18.8h4.731v7.152h9.404v-12.45l1.012,0.641
	c0.389,0.248,0.916,0.131,1.164-0.264C29.249,13.482,29.136,12.965,28.737,12.717z"/>
</svg>
