<?xml version="1.0" encoding="utf-8"?>
<!-- Generator: Adobe Illustrator 16.0.0, SVG Export Plug-In . SVG Version: 6.00 Build 0)  -->
<!DOCTYPE svg PUBLIC "-//W3C//DTD SVG 1.1//EN" "http://www.w3.org/Graphics/SVG/1.1/DTD/svg11.dtd">
<svg version="1.1" id="Layer_1" xmlns="http://www.w3.org/2000/svg" xmlns:xlink="http://www.w3.org/1999/xlink" x="0px" y="0px"
	 width="30px" height="30px" viewBox="0 0 30 30" enable-background="new 0 0 30 30" xml:space="preserve">
<path fill="#FFFFFF" d="M-200.583-14.584c-16.568,0-30,13.432-30,30s13.432,30,30,30s30-13.432,30-30
	S-184.015-14.584-200.583-14.584z M-196.997,37.485c0,1.98-1.605,3.586-3.586,3.586s-3.586-1.605-3.586-3.586v-1.448
	c0-1.98,1.605-3.586,3.586-3.586s3.586,1.605,3.586,3.586V37.485z M-196.997,25.141c0,1.98-1.605,3.586-3.586,3.586
	s-3.586-1.605-3.586-3.586V-6.653c0-1.98,1.605-3.586,3.586-3.586s3.586,1.605,3.586,3.586V25.141z"/>
<g>
	<path fill-rule="evenodd" clip-rule="evenodd" fill="#006699" d="M-120.11,16.185c0.077-0.083,0.156-0.171,0.238-0.253
		c1.978-1.978,3.955-3.954,5.931-5.932c1.052-1.052,1.052-2.262-0.001-3.315c-0.426-0.427-0.85-0.856-1.279-1.278
		c-0.907-0.892-2.177-0.896-3.081,0.005c-2.021,2.011-4.033,4.03-6.05,6.046c-0.082,0.082-0.17,0.16-0.284,0.268
		c-0.394-1.053-0.456-2.08-0.206-3.129c0.227-0.95,0.685-1.773,1.373-2.465c0.998-1.003,1.993-2.008,3.001-3
		c2.083-2.051,5.352-2.044,7.427,0.008c0.507,0.501,1.014,1.003,1.512,1.512c2.011,2.05,2.027,5.304,0.024,7.355
		c-1.018,1.045-2.036,2.089-3.097,3.09c-1.496,1.41-3.264,1.791-5.237,1.232c-0.072-0.02-0.146-0.047-0.216-0.076
		C-120.072,16.246-120.082,16.222-120.11,16.185z"/>
	<path fill-rule="evenodd" clip-rule="evenodd" fill="#006699" d="M-127.479,14.723c-0.106,0.059-0.231,0.098-0.313,0.181
		c-1.98,1.973-3.957,3.95-5.933,5.928c-1.052,1.052-1.052,2.266-0.002,3.315c0.427,0.428,0.85,0.856,1.28,1.278
		c0.909,0.894,2.178,0.896,3.081-0.003c2.021-2.012,4.033-4.029,6.046-6.048c0.082-0.082,0.119-0.208,0.218-0.284
		c0.332,0.651,0.43,1.275,0.424,1.91c-0.012,1.406-0.487,2.642-1.477,3.653c-1.019,1.041-2.047,2.075-3.092,3.093
		c-2.045,1.992-5.286,1.985-7.331-0.005c-0.541-0.529-1.078-1.063-1.604-1.606c-1.958-2.026-1.966-5.26-0.005-7.283
		c1.023-1.054,2.053-2.104,3.12-3.113c1.495-1.414,3.262-1.789,5.235-1.236c0.091,0.025,0.176,0.069,0.265,0.104
		C-127.537,14.645-127.508,14.684-127.479,14.723z"/>
	<path fill-rule="evenodd" clip-rule="evenodd" fill="#006699" d="M-117.636,11.348c0.004,0.555-0.193,1.031-0.583,1.421
		c-2.734,2.737-5.468,5.479-8.213,8.208c-0.832,0.83-2.128,0.797-2.95-0.039c-0.813-0.826-0.833-2.102-0.011-2.928
		c2.722-2.735,5.452-5.464,8.187-8.188c0.651-0.648,1.433-0.772,2.275-0.439C-118.135,9.699-117.634,10.485-117.636,11.348z"/>
</g>
<g>
	<g>
		<path fill-rule="evenodd" clip-rule="evenodd" fill="#006699" d="M-79.86,16.185c0.077-0.083,0.156-0.171,0.238-0.253
			c1.978-1.978,3.955-3.954,5.931-5.932c1.052-1.052,1.052-2.262-0.001-3.315c-0.426-0.427-0.85-0.856-1.279-1.278
			c-0.907-0.892-2.177-0.896-3.081,0.005c-2.021,2.011-4.033,4.03-6.05,6.046c-0.082,0.082-0.17,0.16-0.284,0.268
			c-0.394-1.053-0.456-2.08-0.206-3.129c0.227-0.95,0.685-1.773,1.373-2.465c0.998-1.003,1.993-2.008,3.001-3
			c2.083-2.051,5.352-2.044,7.427,0.008c0.507,0.501,1.014,1.003,1.512,1.512c2.011,2.05,2.027,5.304,0.024,7.355
			c-1.018,1.045-2.036,2.089-3.097,3.09c-1.496,1.41-3.264,1.791-5.237,1.232c-0.072-0.02-0.146-0.047-0.216-0.076
			C-79.822,16.246-79.832,16.222-79.86,16.185z"/>
	</g>
	<g>
		<path fill-rule="evenodd" clip-rule="evenodd" fill="#006699" d="M-87.229,14.723c-0.106,0.059-0.231,0.098-0.313,0.181
			c-1.98,1.973-3.957,3.95-5.933,5.928c-1.052,1.052-1.052,2.266-0.002,3.315c0.427,0.428,0.85,0.856,1.28,1.278
			c0.909,0.894,2.178,0.896,3.081-0.003c2.021-2.012,4.033-4.029,6.046-6.048c0.082-0.082,0.119-0.208,0.218-0.284
			c0.332,0.651,0.43,1.275,0.424,1.91c-0.012,1.406-0.487,2.642-1.477,3.653c-1.019,1.041-2.047,2.075-3.092,3.093
			c-2.045,1.992-5.286,1.985-7.331-0.005c-0.541-0.529-1.078-1.063-1.604-1.606c-1.958-2.026-1.966-5.26-0.005-7.283
			c1.023-1.054,2.053-2.104,3.12-3.113c1.495-1.414,3.262-1.789,5.235-1.236c0.091,0.025,0.176,0.069,0.265,0.104
			C-87.287,14.645-87.258,14.684-87.229,14.723z"/>
	</g>
	<g>
		<g>
			<path fill-rule="evenodd" clip-rule="evenodd" fill="#006699" d="M-83.489,15.354l-3.16,0.164
				c-0.831,0.832-1.664,1.66-2.493,2.493c-0.822,0.826-0.802,2.102,0.011,2.928c0.822,0.836,2.118,0.869,2.95,0.039
				c0.805-0.8,1.604-1.604,2.407-2.406L-83.489,15.354z"/>
		</g>
		<g>
			<path fill-rule="evenodd" clip-rule="evenodd" fill="#006699" d="M-78.681,9.384c-0.843-0.333-1.624-0.209-2.275,0.439
				c-0.677,0.674-3.152,3.155-3.829,3.829l3.374-0.377l-0.32,3.256c0.652-0.654,3.11-3.109,3.763-3.762
				c0.39-0.391,0.587-0.866,0.583-1.421C-77.384,10.485-77.885,9.699-78.681,9.384z"/>
		</g>
	</g>
	<g>
		<rect x="-87.263" y="2.947" fill="#006699" width="1" height="5.313"/>
	</g>
	<g>
		
			<rect x="-93.651" y="6.707" transform="matrix(0.707 0.7072 -0.7072 0.707 -21.5634 66.4632)" fill="#006699" width="5.312" height="1"/>
	</g>
	<g>
		<rect x="-95.529" y="10.888" fill="#006699" width="5.313" height="1"/>
	</g>
	<g>
		<rect x="-80.933" y="21.597" fill="#006699" width="1" height="5.313"/>
	</g>
	<g>
		
			<rect x="-78.857" y="22.149" transform="matrix(0.7069 0.7073 -0.7073 0.7069 -6.3128 60.5337)" fill="#006699" width="5.313" height="1"/>
	</g>
	<g>
		<rect x="-76.979" y="17.969" fill="#006699" width="5.313" height="1"/>
	</g>
</g>
<g>
	<rect x="-43.005" y="10.535" fill-rule="evenodd" clip-rule="evenodd" fill="#006699" width="14.439" height="9.603"/>
	<polygon fill-rule="evenodd" clip-rule="evenodd" fill="#143E4F" points="-30.815,15.416 -30.815,20.138 -28.565,20.138 
		-28.565,10.535 -30.815,10.535 	"/>
	<polygon fill-rule="evenodd" clip-rule="evenodd" fill="#006699" points="-29.765,15.416 -29.765,7.628 -25.546,11.522 
		-21.327,15.416 -25.546,19.31 -29.765,23.204 	"/>
</g>
<path fill-rule="evenodd" clip-rule="evenodd" fill="#C1272D" d="M21.087,0.306H8.913L0.306,8.913v12.173l8.607,8.607h12.174
	l8.607-8.607V8.913L21.087,0.306z M16.5,26.125h-3v-2.848h3V26.125z M16.5,20.208h-3V3.875h3V20.208z"/>
</svg>
