<?xml version="1.0" encoding="utf-8"?>
<!-- Generator: Adobe Illustrator 16.0.0, SVG Export Plug-In . SVG Version: 6.00 Build 0)  -->
<!DOCTYPE svg PUBLIC "-//W3C//DTD SVG 1.1//EN" "http://www.w3.org/Graphics/SVG/1.1/DTD/svg11.dtd">
<svg version="1.1" id="Layer_1" xmlns="http://www.w3.org/2000/svg" xmlns:xlink="http://www.w3.org/1999/xlink" x="0px" y="0px"
	 width="60px" height="60px" viewBox="0 0 60 60" enable-background="new 0 0 60 60" xml:space="preserve">
<path fill="#FFFFFF" d="M30,0C13.432,0,0,13.432,0,30s13.432,30,30,30s30-13.432,30-30S46.568,0,30,0z M33.586,52.069
	c0,1.98-1.605,3.586-3.586,3.586s-3.586-1.605-3.586-3.586v-1.448c0-1.98,1.605-3.586,3.586-3.586s3.586,1.605,3.586,3.586V52.069z
	 M33.586,39.725c0,1.98-1.605,3.586-3.586,3.586s-3.586-1.605-3.586-3.586V7.931c0-1.98,1.605-3.586,3.586-3.586
	s3.586,1.605,3.586,3.586V39.725z"/>
</svg>
